<?xml version="1.0" standalone="no"?>
<!DOCTYPE svg PUBLIC "-//W3C//DTD SVG 1.1//EN" "http://www.w3.org/Graphics/SVG/1.1/DTD/svg11.dtd" >
<svg xmlns="http://www.w3.org/2000/svg" xmlns:xlink="http://www.w3.org/1999/xlink" version="1.1">
<metadata>
Created by FontForge 20170910 at Thu Oct 30 15:47:26 2014
 By Jimmy Wärting
</metadata>
<defs>
<font id="fl-bigmug-line" horiz-adv-x="512" >
  <font-face 
    font-family="Bigmug Line"
    font-weight="400"
    font-stretch="normal"
    units-per-em="512"
    panose-1="2 0 5 3 0 0 0 0 0 0"
    ascent="448"
    descent="-64"
    bbox="0 -65 819 448.714"
    underline-thickness="0"
    underline-position="0"
    unicode-range="U+E000-E0DB"
  />
<missing-glyph 
 />
    <glyph glyph-name=".notdef" 
 />
    <glyph glyph-name=".notdef" 
 />
    <glyph glyph-name=".null" horiz-adv-x="0" 
 />
    <glyph glyph-name="nonmarkingreturn" horiz-adv-x="170" 
 />
    <glyph glyph-name="add137" unicode="&#xe000;" 
d="M448 256h-128v128q0 27 -18.5 45.5t-45.5 18.5t-45.5 -18.5t-18.5 -45.5v-128h-128q-27 0 -45.5 -18.5t-18.5 -45.5t18.5 -45.5t45.5 -18.5h128v-128q0 -27 18.5 -45.5t45.5 -18.5t45.5 18.5t18.5 45.5v128h128q27 0 45.5 18.5t18.5 45.5t-18.5 45.5t-45.5 18.5zM448 160
h-160v-160q0 -13 -9.5 -22.5t-22.5 -9.5t-22.5 9.5t-9.5 22.5v160h-160q-13 0 -22.5 9.5t-9.5 22.5t9.5 22.5t22.5 9.5h160v160q0 13 9.5 22.5t22.5 9.5t22.5 -9.5t9.5 -22.5v-160h160q13 0 22.5 -9.5t9.5 -22.5t-9.5 -22.5t-22.5 -9.5z" />
    <glyph glyph-name="add139" unicode="&#xe001;" 
d="M256 448q-106 0 -181 -75t-75 -181t75 -181t181 -75t181 75t75 181t-75 181t-181 75zM256 -32q-93 0 -158.5 65.5t-65.5 158.5t65.5 158.5t158.5 65.5t158.5 -65.5t65.5 -158.5t-65.5 -158.5t-158.5 -65.5zM352 208h-80v80q0 7 -4.5 11.5t-11.5 4.5t-11.5 -4.5
t-4.5 -11.5v-80h-80q-7 0 -11.5 -4.5t-4.5 -11.5t4.5 -11.5t11.5 -4.5h80v-80q0 -7 4.5 -11.5t11.5 -4.5t11.5 4.5t4.5 11.5v80h80q7 0 11.5 4.5t4.5 11.5t-4.5 11.5t-11.5 4.5z" />
    <glyph glyph-name="add149" unicode="&#xe002;" 
d="M352 208h-80v80q0 7 -4.5 11.5t-11.5 4.5t-11.5 -4.5t-4.5 -11.5v-80h-80q-7 0 -11.5 -4.5t-4.5 -11.5t4.5 -11.5t11.5 -4.5h80v-80q0 -7 4.5 -11.5t11.5 -4.5t11.5 4.5t4.5 11.5v80h80q7 0 11.5 4.5t4.5 11.5t-4.5 11.5t-11.5 4.5zM448 448h-384q-27 0 -45.5 -18.5
t-18.5 -45.5v-384q0 -27 18.5 -45.5t45.5 -18.5h384q27 0 45.5 18.5t18.5 45.5v384q0 27 -18.5 45.5t-45.5 18.5zM480 0q0 -13 -9.5 -22.5t-22.5 -9.5h-384q-13 0 -22.5 9.5t-9.5 22.5v384q0 13 9.5 22.5t22.5 9.5h384q13 0 22.5 -9.5t9.5 -22.5v-384z" />
    <glyph glyph-name="airplane86" unicode="&#xe003;" 
d="M500 435q-15 15 -37 13t-38 -18l-102 -101l-189 70q-12 6 -28 4.5t-31 -16.5q-9 -9 -14 -16t-3.5 -22.5t17.5 -31.5l130 -107l-85 -84l-78 20q-17 4 -26 -6l-3.5 -3.5t-5.5 -6.5t-4.5 -7.5t-1.5 -9t5 -9.5l92 -71l71 -91q10 -7 17 -5t19 14q6 6 6.5 11.5t-2.5 14.5
l-18 79l84 84l106 -130q16 -16 32 -17.5t23 3.5t16 14q15 15 16 31t-4 28l-70 189l101 103q16 15 18 37t-13 37zM479 382l-120 -120l73 -198q6 -21 -4 -31q-15 -15 -27 -1l-115 156l-128 -128l23 -86q-4 5 -19.5 25t-29.5 38t-14 18.5t-18 14t-37.5 28.5t-22.5 18l82 -22
l130 128l-155 114q-5 4 -5.5 11t7.5 17q9 9 29 2l198 -71l121 118q6 7 16.5 6.5t15.5 -5.5q6 -6 6 -16t-6 -16z" />
    <glyph glyph-name="alarm31" unicode="&#xe004;" 
d="M368 208h-96v112q0 7 -4.5 11.5t-11.5 4.5t-11.5 -4.5t-4.5 -11.5v-128q0 -7 4.5 -11.5t11.5 -4.5h112q7 0 11.5 4.5t4.5 11.5t-4.5 11.5t-11.5 4.5zM32 368q0 20 14 34t34 14h32v32h-32q-33 0 -56.5 -23.5t-23.5 -56.5v-32h32v32zM432 448h-32v-32h32q20 0 34 -14
t14 -34v-32h32v32q0 33 -23.5 56.5t-56.5 23.5zM480 192q0 93 -65.5 158.5t-158.5 65.5t-158.5 -65.5t-65.5 -158.5q0 -63 32 -115.5t85 -81.5l-53 -59h48l43 43q34 -11 69 -11t69 11l43 -43h48l-53 59q53 29 85 81.5t32 115.5zM256 0q-80 0 -136 56t-56 136t56 136t136 56
t136 -56t56 -136t-56 -136t-136 -56z" />
    <glyph glyph-name="arrow592" unicode="&#xe005;" 
d="M475 210v-201q0 -15 -10.5 -25.5t-25.5 -10.5l-367 -1q-15 0 -25.5 10.5t-10.5 25.5l1 367q0 15 10.5 25.5t25.5 10.5h201v37h-201q-29 0 -51 -25t-22 -55v-360q0 -30 21 -51t51 -21h360q30 0 55 22t25 51v201h-37zM201 247q0 7 -5.5 12.5t-13 5.5t-12.5 -5.5t-5 -12.5
v-128q0 -8 5 -13t13 -5h128q7 0 12.5 5t5.5 12.5t-5.5 13t-12.5 5.5h-82l270 270q5 6 5 13.5t-5 13t-12.5 5.5t-13.5 -6l-272 -272v86z" />
    <glyph glyph-name="attach8" unicode="&#xe006;" horiz-adv-x="511" 
d="M488 262l-260 -258q-32 -32 -78 -32t-78 32t-32 77.5t32 77.5l234 231q22 22 52.5 22t52 -21.5t21.5 -51.5t-22 -52l-234 -231q-11 -11 -26 -11t-26 10.5t-11 26t11 25.5l208 206l-26 26l-208 -206q-21 -21 -21 -51.5t21.5 -51.5t52 -21t51.5 21l234 232q33 32 33 77
t-32.5 77t-78 32t-78.5 -32l-247 -244l1 -1q-34 -43 -31 -98t43 -94.5t95.5 -42.5t98.5 31l1 -1l273 270z" />
    <glyph glyph-name="attachment15" unicode="&#xe007;" horiz-adv-x="256" 
d="M224 384v-320q0 -40 -28 -68t-68 -28t-68 28t-28 68v288q0 27 18.5 45.5t45.5 18.5t45.5 -18.5t18.5 -45.5v-288q0 -13 -9.5 -22.5t-22.5 -9.5t-22.5 9.5t-9.5 22.5v256h-32v-256q0 -27 18.5 -45.5t45.5 -18.5t45.5 18.5t18.5 45.5v288q0 40 -28 68t-68 28t-68 -28
t-28 -68v-304q6 -48 42.5 -80t85.5 -32t85.5 32t42.5 80v336h-32z" />
    <glyph glyph-name="audio46" unicode="&#xe008;" horiz-adv-x="640" 
d="M299 448l-192 -128h-64q-18 0 -30.5 -12.5t-12.5 -30.5v-170q0 -18 12.5 -30.5t30.5 -12.5h64l192 -128q17 0 29.5 12.5t12.5 30.5v426q0 18 -12.5 30.5t-29.5 12.5zM107 128q0 -9 -6.5 -15t-15.5 -6h-21q-9 0 -15 6t-6 15v128q0 9 6 15t15 6h21q9 0 15.5 -6t6.5 -15
v-128zM299 -21l-150 93v240l150 93v-426zM543 192l89 89q7 7 7.5 16.5t-6 16t-16 6t-16.5 -7.5l-89 -89l-89 89q-7 7 -16.5 7.5t-16 -6t-6 -16t7.5 -16.5l89 -89l-89 -89q-7 -7 -7.5 -16.5t6 -16t16 -6t16.5 7.5l89 89l89 -89q7 -7 16.5 -7.5t16 6t6 16t-7.5 16.5z" />
    <glyph glyph-name="back44" unicode="&#xe009;" 
d="M368 208h-169l66 66q11 11 -0.5 22.5t-22.5 0.5l-91 -91q-5 -6 -4 -14q-1 -8 4 -14l91 -91q11 -11 22.5 0.5t0.5 22.5l-66 66h169q7 0 11.5 4.5t4.5 11.5t-4.5 11.5t-11.5 4.5zM256 448q-106 0 -181 -75t-75 -181t75 -181t181 -75t181 75t75 181t-75 181t-181 75z
M256 -32q-93 0 -158.5 65.5t-65.5 158.5t65.5 158.5t158.5 65.5t158.5 -65.5t65.5 -158.5t-65.5 -158.5t-158.5 -65.5z" />
    <glyph glyph-name="back46" unicode="&#xe00a;" 
d="M448 448h-384q-27 0 -45.5 -18.5t-18.5 -45.5v-384q0 -27 18.5 -45.5t45.5 -18.5h384q27 0 45.5 18.5t18.5 45.5v384q0 27 -18.5 45.5t-45.5 18.5zM480 0q0 -13 -9.5 -22.5t-22.5 -9.5h-384q-13 0 -22.5 9.5t-9.5 22.5v384q0 13 9.5 22.5t22.5 9.5h384q13 0 22.5 -9.5
t9.5 -22.5v-384zM352 208h-169l66 66q11 11 -0.5 22.5t-22.5 0.5l-91 -91q-5 -6 -4 -14q-1 -8 4 -14l91 -91q11 -11 22.5 0.5t0.5 22.5l-66 66h169q7 0 11.5 4.5t4.5 11.5t-4.5 11.5t-11.5 4.5z" />
    <glyph glyph-name="big104" unicode="&#xe00b;" horiz-adv-x="384" 
d="M192 336q-33 0 -56.5 -23.5t-23.5 -56.5t23.5 -56.5t56.5 -23.5t56.5 23.5t23.5 56.5t-23.5 56.5t-56.5 23.5zM192 208q-20 0 -34 14t-14 34t14 34t34 14t34 -14t14 -34t-14 -34t-34 -14zM192 448q-80 0 -136 -56t-56 -136q0 -37 41.5 -116t88 -141.5t62.5 -62.5t62.5 63
t88 141.5t41.5 115.5q0 80 -56 136t-136 56zM192 -16q-13 0 -52 53.5t-73.5 120.5t-34.5 98q0 66 47 113t113 47t113 -47t47 -113q0 -47 -69.5 -159.5t-90.5 -112.5z" />
    <glyph glyph-name="book188" unicode="&#xe00c;" 
d="M448 448q-93 -26 -177 -48h-9.5h-12h-10.5q-179 48 -175 48q-27 0 -45.5 -18.5t-18.5 -45.5v-336q0 -43 64 -64q86 -24 175 -48h33l176 48q64 17 64 64v336q0 27 -18.5 45.5t-45.5 18.5zM240 -32l-176 48q-32 9 -32 32v336q0 13 9.5 22.5t22.5 9.5l176 -48v-400zM480 48
q0 -22 -32 -32q-87 -24 -176 -48v400l176 48q13 0 22.5 -9.5t9.5 -22.5v-336z" />
    <glyph glyph-name="bookmark28" unicode="&#xe00d;" horiz-adv-x="375" 
d="M307 448h-239q-28 0 -48 -20t-20 -48v-376q0 -28 20 -48t48 -20l120 119l119 -119q28 0 48 20t20 48v376q0 28 -20 48t-48 20zM341 4q0 -14 -10 -24t-24 -10l-119 120l-120 -120q-14 0 -24 10t-10 24v376q0 14 10 24t24 10h239q14 0 24 -10t10 -24v-376z" />
    <glyph glyph-name="bottle34" unicode="&#xe00e;" horiz-adv-x="192" 
d="M144 256v176q0 7 -4.5 11.5t-11.5 4.5h-64q-7 0 -11.5 -4.5t-4.5 -11.5v-176q-23 0 -35.5 -18t-12.5 -46v-256h192v256q0 28 -12.5 46t-35.5 18zM80 416h32v-32h-32v32zM80 352h32v-96h-32v96zM160 -32h-128v224q0 13 9.5 22.5t22.5 9.5h64q13 0 22.5 -9.5t9.5 -22.5
v-224z" />
    <glyph glyph-name="button5" unicode="&#xe00f;" horiz-adv-x="585" 
d="M73 265q-30 0 -51.5 -21.5t-21.5 -51.5t21.5 -51.5t51.5 -21.5t51.5 21.5t21.5 51.5t-21.5 51.5t-51.5 21.5zM73 155q-15 0 -25.5 11t-10.5 26t10.5 26t25.5 11t26 -11t11 -26t-11 -26t-26 -11zM73 82q-30 0 -51.5 -21.5t-21.5 -51.5t21.5 -51.5t51.5 -21.5t51.5 21.5
t21.5 51.5t-21.5 51.5t-51.5 21.5zM73 -27q-15 0 -25.5 10.5t-10.5 25.5t10.5 26t25.5 11t26 -11t11 -26t-11 -25.5t-26 -10.5zM512 302q30 0 51.5 21.5t21.5 51.5t-21.5 51.5t-51.5 21.5t-51.5 -21.5t-21.5 -51.5t21.5 -51.5t51.5 -21.5zM512 411q15 0 26 -10.5t11 -25.5
t-11 -26t-26 -11t-26 11t-11 26t11 25.5t26 10.5zM512 82q-30 0 -51.5 -21.5t-21.5 -51.5t21.5 -51.5t51.5 -21.5t51.5 21.5t21.5 51.5t-21.5 51.5t-51.5 21.5zM512 -27q-15 0 -26 10.5t-11 25.5t11 26t26 11t26 -11t11 -26t-11 -25.5t-26 -10.5zM73 448q-30 0 -51.5 -21.5
t-21.5 -51.5t21.5 -51.5t51.5 -21.5t51.5 21.5t21.5 51.5t-21.5 51.5t-51.5 21.5zM73 338q-15 0 -25.5 11t-10.5 26t10.5 25.5t25.5 10.5t26 -10.5t11 -25.5t-11 -26t-26 -11zM512 265q-30 0 -51.5 -21.5t-21.5 -51.5t21.5 -51.5t51.5 -21.5t51.5 21.5t21.5 51.5t-21.5 51.5
t-51.5 21.5zM512 155q-15 0 -26 11t-11 26t11 26t26 11t26 -11t11 -26t-11 -26t-26 -11zM292.5 448q-30.5 0 -52 -21.5t-21.5 -51.5t21.5 -51.5t52 -21.5t52 21.5t21.5 51.5t-21.5 51.5t-52 21.5zM292.5 338q-15.5 0 -26 11t-10.5 26t10.5 25.5t26 10.5t26 -10.5t10.5 -25.5
t-10.5 -26t-26 -11zM292.5 82q-30.5 0 -52 -21.5t-21.5 -51.5t21.5 -51.5t52 -21.5t52 21.5t21.5 51.5t-21.5 51.5t-52 21.5zM292.5 -27q-15.5 0 -26 10.5t-10.5 25.5t10.5 26t26 11t26 -11t10.5 -26t-10.5 -25.5t-26 -10.5zM292.5 265q-30.5 0 -52 -21.5t-21.5 -51.5
t21.5 -51.5t52 -21.5t52 21.5t21.5 51.5t-21.5 51.5t-52 21.5zM292.5 155q-15.5 0 -26 11t-10.5 26t10.5 26t26 11t26 -11t10.5 -26t-10.5 -26t-26 -11z" />
    <glyph glyph-name="buttons5" unicode="&#xe010;" horiz-adv-x="396" 
d="M241 217q-8 0 -13 -5.5t-5 -13t5 -13t13 -5.5t13.5 5.5t5.5 13t-5.5 13t-13.5 5.5zM161 204h-37v37q0 6 -4 9.5t-9 3.5t-8.5 -3.5t-3.5 -9.5v-37h-37q-5 0 -9 -3.5t-4 -8.5t4 -8.5t9 -3.5h37v-37q0 -6 3.5 -9.5t8.5 -3.5t9 3.5t4 9.5v37h37q5 0 8.5 3.5t3.5 8.5t-3.5 8.5
t-8.5 3.5zM278.5 167q-7.5 0 -13 -5.5t-5.5 -13t5.5 -13t13 -5.5t13 5.5t5.5 13t-5.5 13t-13 5.5zM290.5 254q-7.5 0 -13 -5.5t-5.5 -13t5.5 -13t13 -5.5t13 5.5t5.5 13t-5.5 13t-13 5.5zM327.5 204q-7.5 0 -13 -5.5t-5.5 -13t5.5 -13t13 -5.5t13 5.5t5.5 13t-5.5 13
t-13 5.5zM321 303h-247q-31 0 -52.5 -21.5t-21.5 -52.5v-74q0 -31 21.5 -52.5t52.5 -21.5h247q31 0 53 21.5t22 52.5v74q0 31 -22 52.5t-53 21.5zM371 155q0 -21 -14.5 -35.5t-35.5 -14.5h-247q-20 0 -34.5 14.5t-14.5 35.5v74q0 21 14.5 35.5t34.5 14.5h247
q21 0 35.5 -14.5t14.5 -35.5v-74z" />
    <glyph glyph-name="cellphone55" unicode="&#xe011;" horiz-adv-x="368" 
d="M304 448h-240q-27 0 -45.5 -18.5t-18.5 -45.5v-384q0 -27 18.5 -45.5t45.5 -18.5h240q27 0 45.5 18.5t18.5 45.5v384q0 27 -18.5 45.5t-45.5 18.5zM336 0q0 -13 -9.5 -22.5t-22.5 -9.5h-240q-13 0 -22.5 9.5t-9.5 22.5v48h304v-48zM336 80h-304v256h304v-256zM336 368
h-304v16q0 13 9.5 22.5t22.5 9.5h240q13 0 22.5 -9.5t9.5 -22.5v-16zM184 -16q10 0 17 7t7 17t-7 17t-17 7t-17 -7t-7 -17t7 -17t17 -7z" />
    <glyph glyph-name="cellular9" unicode="&#xe012;" horiz-adv-x="288" 
d="M144 0q13 0 22.5 9.5t9.5 22.5t-9.5 22.5t-22.5 9.5t-22.5 -9.5t-9.5 -22.5t9.5 -22.5t22.5 -9.5zM224 448h-160q-27 0 -45.5 -18.5t-18.5 -45.5v-384q0 -27 18.5 -45.5t45.5 -18.5h160q27 0 45.5 18.5t18.5 45.5v384q0 27 -18.5 45.5t-45.5 18.5zM256 0
q0 -13 -9.5 -22.5t-22.5 -9.5h-160q-13 0 -22.5 9.5t-9.5 22.5v96h224v-96zM256 128h-224v208h224v-208zM256 368h-224v16q0 13 9.5 22.5t22.5 9.5h160q13 0 22.5 -9.5t9.5 -22.5v-16z" />
    <glyph glyph-name="center10" unicode="&#xe013;" horiz-adv-x="551" 
d="M20 409h512q8 0 13.5 5.5t5.5 13.5t-5.5 14t-13.5 6h-512q-8 0 -14 -6t-6 -14t6 -13.5t14 -5.5zM98 290q-8 0 -13.5 -5.5t-5.5 -13.5t5.5 -14t13.5 -6h355q8 0 14 6t6 14t-6 13.5t-14 5.5h-355zM414 -25h-276q-8 0 -14 -5.5t-6 -13.5t6 -14t14 -6h276q8 0 13.5 6t5.5 14
t-5.5 13.5t-13.5 5.5zM532 133h-512q-8 0 -14 -6t-6 -14t6 -13.5t14 -5.5h512q8 0 13.5 5.5t5.5 13.5t-5.5 14t-13.5 6z" />
    <glyph glyph-name="chat51" unicode="&#xe014;" 
d="M336 176h-160q-7 0 -11.5 -4.5t-4.5 -11.5t4.5 -11.5t11.5 -4.5h160q7 0 11.5 4.5t4.5 11.5t-4.5 11.5t-11.5 4.5zM368 272h-224q-7 0 -11.5 -4.5t-4.5 -11.5t4.5 -11.5t11.5 -4.5h224q7 0 11.5 4.5t4.5 11.5t-4.5 11.5t-11.5 4.5zM256 448q-106 0 -181 -65.5t-75 -158.5
q0 -52 25.5 -97.5t70.5 -77.5v-113l112 68q25 -4 48 -4q106 0 181 65.5t75 158.5t-75 158.5t-181 65.5zM256 32q-27 0 -54 6l-75 -45l1 74q-45 26 -70.5 67.5t-25.5 89.5q0 80 65.5 136t158.5 56t158.5 -56t65.5 -136t-65.5 -136t-158.5 -56z" />
    <glyph glyph-name="chat55" unicode="&#xe015;" horiz-adv-x="496" 
d="M200 240q10 0 17 7t7 17t-7 17t-17 7t-17 -7t-7 -17t7 -17t17 -7zM296 240q10 0 17 7t7 17t-7 17t-17 7t-17 -7t-7 -17t7 -17t17 -7zM154 84q26 -4 54 -4q84 0 138 54.5t54 131.5q0 74 -59 128t-133 54q-86 0 -147 -53.5t-61 -128.5q0 -89 64 -143v-91zM32 264
q0 63 51 107.5t125 44.5q61 0 110.5 -45t49.5 -107q0 -64 -44.5 -108t-115.5 -44q-36 0 -57 4l-55 -36v57q-64 52 -64 127zM431 302q1 -13 1 -14q0 -13 -2 -30q34 -40 34 -90q0 -39 -21.5 -73t-58.5 -54v-57l-55 36q-21 -4 -41 -4q-29 0 -48.5 7.5t-45.5 25.5q-14 -1 -26 -1
q-4 0 -19 1q31 -31 63 -46t76 -15q19 0 38 3l90 -55v91q37 25 58.5 62.5t21.5 80.5q0 78 -65 132zM104 240q10 0 17 7t7 17t-7 17t-17 7t-17 -7t-7 -17t7 -17t17 -7z" />
    <glyph glyph-name="checkmark14" unicode="&#xe016;" horiz-adv-x="630" 
d="M606.5 424q-23.5 24 -57 24t-56.5 -24l-285 -290l-71 73q-23 24 -56.5 24t-57 -24.5t-23.5 -58t24 -57.5l127 -131q24 -24 57.5 -24t56.5 24l341 348q24 24 24 58t-23.5 58zM578 337q-336 -343 -341 -348q-12 -12 -28.5 -12t-28.5 12q-129 131 -129 132
q-11 12 -10.5 28.5t11.5 28.5q12 12 28.5 12t28.5 -12l99 -102l313 319q12 12 28.5 12t28.5 -12t12 -29t-12 -29z" />
    <glyph glyph-name="checkmark15" unicode="&#xe017;" 
d="M448 448h-384q-27 0 -45.5 -18.5t-18.5 -45.5v-384q0 -27 18.5 -45.5t45.5 -18.5h384q27 0 45.5 18.5t18.5 45.5v384q0 27 -18.5 45.5t-45.5 18.5zM480 0q0 -13 -9.5 -22.5t-22.5 -9.5h-384q-13 0 -22.5 9.5t-9.5 22.5v384q0 13 9.5 22.5t22.5 9.5h384q13 0 22.5 -9.5
t9.5 -22.5v-384zM352.5 303q-5.5 3 -12 1.5t-9.5 -7.5l-103 -177l-57 53q-11 11 -22.5 0t-0.5 -22l73 -68q11 -11 22 0q1 0 30 50t57 99l28 49q4 6 2 12.5t-7.5 9.5z" />
    <glyph glyph-name="checkmark16" unicode="&#xe018;" 
d="M352.5 303q-5.5 3 -12 1.5t-9.5 -7.5l-103 -177l-57 53q-11 11 -22.5 0t-0.5 -22l73 -68q11 -11 22 0q1 0 30 50t57 99l28 49q4 6 2 12.5t-7.5 9.5zM256 448q-106 0 -181 -75t-75 -181t75 -181t181 -75t181 75t75 181t-75 181t-181 75zM256 -32q-93 0 -158.5 65.5
t-65.5 158.5t65.5 158.5t158.5 65.5t158.5 -65.5t65.5 -158.5t-65.5 -158.5t-158.5 -65.5z" />
    <glyph glyph-name="circular220" unicode="&#xe019;" 
d="M256.5 368q-46.5 0 -79.5 -33t-33 -79t33 -79t79.5 -33t79 33t32.5 79t-32.5 79t-79 33zM256 176q-33 0 -56.5 23.5t-23.5 56.5t23.5 56.5t56.5 23.5t56.5 -23.5t23.5 -56.5t-23.5 -56.5t-56.5 -23.5zM432 169q21 41 21 85q0 81 -57.5 137.5t-139 56.5t-139 -56.5
t-57.5 -137.5q0 -44 20 -85l-80 -136q51 -10 102 -21l68 -76l74 125h12.5h12.5l73 -125l68 76l102 21zM166 -6q-24 23 -47 46l-66 19l46 79q42 -55 110 -72zM256 96q-66 0 -113 47t-47 113t47 113t113 47t113 -47t47 -113t-47 -113t-113 -47zM393 40l-47 -46l-43 72
q68 17 110 72l46 -79l-9 -3t-25.5 -7.5t-31.5 -8.5z" />
    <glyph glyph-name="circular224" unicode="&#xe01a;" 
d="M256 448q-106 0 -181 -75t-75 -181t75 -181t181 -75t181 75t75 181t-75 181t-181 75zM273 -29v84q0 8 -5 13t-12 5t-12 -5t-5 -13v-84q-82 6 -140 64t-64 140h84q8 0 13 5t5 12t-5 12t-13 5h-84q6 82 64 140t140 64v-84q0 -8 5 -13t12 -5t12 5t5 13v84q82 -6 140 -64
t64 -140h-84q-8 0 -13 -5t-5 -12t5 -12t13 -5h84q-6 -82 -64 -140t-140 -64z" />
    <glyph glyph-name="circular228" unicode="&#xe01b;" 
d="M240 448h-32v-48q-88 -10 -148 -76.5t-60 -155.5q0 -96 68 -164t164 -68q70 0 127 38t85 100l36 -10q32 53 32 119q0 109 -81.5 187t-190.5 78zM232 -32q-83 0 -141.5 58.5t-58.5 141.5q0 75 51 132t125 68v-215l203 -71q-20 -50 -71 -82t-108 -32zM457 102l-217 74v240
q94 0 166 -69.5t72 -163.5q0 -43 -21 -81z" />
    <glyph glyph-name="circular229" unicode="&#xe01c;" 
d="M380 416h116q7 0 11.5 4.5t4.5 11.5t-4.5 11.5t-11.5 4.5h-160q-16 0 -16 -16v-160q0 -7 4.5 -11.5t11.5 -4.5t11.5 4.5t4.5 11.5v122q58 -27 93 -81.5t35 -120.5q0 -93 -65.5 -158.5t-158.5 -65.5t-158.5 65.5t-65.5 158.5q0 84 55 147t137 74v33q-95 -12 -159.5 -84.5
t-64.5 -169.5q0 -106 75 -181t181 -75t181 75t75 181q0 71 -36 131t-96 93z" />
    <glyph glyph-name="clipboard68" unicode="&#xe01d;" horiz-adv-x="448" 
d="M336 144h-224q-7 0 -11.5 -4.5t-4.5 -11.5t4.5 -11.5t11.5 -4.5h224q7 0 11.5 4.5t4.5 11.5t-4.5 11.5t-11.5 4.5zM336 64h-224q-7 0 -11.5 -4.5t-4.5 -11.5t4.5 -11.5t11.5 -4.5h224q7 0 11.5 4.5t4.5 11.5t-4.5 11.5t-11.5 4.5zM384 384h-48v32h-43q-23 32 -69 32
t-69 -32h-43v-32h-48q-27 0 -45.5 -18.5t-18.5 -45.5v-320q0 -27 18.5 -45.5t45.5 -18.5h320q27 0 45.5 18.5t18.5 45.5v320q0 27 -18.5 45.5t-45.5 18.5zM144 384h36q0 13 13 22.5t31 9.5t31 -9.5t13 -22.5h36v-64h-160v64zM416 0q0 -13 -9.5 -22.5t-22.5 -9.5h-320
q-13 0 -22.5 9.5t-9.5 22.5v320q0 13 9.5 22.5t22.5 9.5h48v-64h224v64h48q13 0 22.5 -9.5t9.5 -22.5v-320zM336 224h-224q-7 0 -11.5 -4.5t-4.5 -11.5t4.5 -11.5t11.5 -4.5h224q7 0 11.5 4.5t4.5 11.5t-4.5 11.5t-11.5 4.5z" />
    <glyph glyph-name="close42" unicode="&#xe01e;" 
d="M347.5 283.5q-11.5 11.5 -22.5 -0.5l-69 -68l-68 68q-11 11 -22.5 -0.5t0.5 -22.5l67 -68l-68 -68q-11 -12 0 -23t23 0l68 68l68 -67q11 -12 22.5 -0.5t0.5 22.5l-68 68l68 69q12 11 0.5 22.5zM256 448q-106 0 -181 -75t-75 -181t75 -181t181 -75t181 75t75 181t-75 181
t-181 75zM256 -32q-93 0 -158.5 65.5t-65.5 158.5t65.5 158.5t158.5 65.5t158.5 -65.5t65.5 -158.5t-65.5 -158.5t-158.5 -65.5z" />
    <glyph glyph-name="cloud255" unicode="&#xe01f;" horiz-adv-x="683" 
d="M492 341q-24 48 -70 77.5t-102 29.5q-76 0 -131 -51.5t-60 -126.5q-57 -16 -93 -61t-36 -102q0 -68 49.5 -117.5t121.5 -52.5l10 -0.5t27 -0.5h39h47h49.5h47h40h28h10.5q85 0 149.5 60t64.5 143q0 80 -55.5 138.5t-135.5 63.5zM469 -21h-298q-6 0 -14.5 1.5t-30.5 10
t-39 21t-31 38t-13 57.5q0 49 37.5 87t90.5 41q0 69 41 119.5t108 50.5q53 0 89.5 -29t49.5 -78q75 4 126.5 -44t54.5 -105q3 -67 -53 -118.5t-118 -51.5z" />
    <glyph glyph-name="cloud260" unicode="&#xe020;" 
d="M208 -32q-7 0 -11.5 -4.5t-4.5 -11.5t4.5 -11.5t11.5 -4.5t11.5 4.5t4.5 11.5t-4.5 11.5t-11.5 4.5zM176 32q-7 0 -11.5 -4.5t-4.5 -11.5t4.5 -11.5t11.5 -4.5t11.5 4.5t4.5 11.5t-4.5 11.5t-11.5 4.5zM272 32q-7 0 -11.5 -4.5t-4.5 -11.5t4.5 -11.5t11.5 -4.5t11.5 4.5
t4.5 11.5t-4.5 11.5t-11.5 4.5zM304 -32q-7 0 -11.5 -4.5t-4.5 -11.5t4.5 -11.5t11.5 -4.5t11.5 4.5t4.5 11.5t-4.5 11.5t-11.5 4.5zM369 368q-18 36 -52.5 58t-76.5 22q-57 0 -98 -38.5t-45 -95.5q-43 -12 -70 -45.5t-27 -76.5q0 -51 37 -88t91 -40h240q59 0 101.5 44.5
t42.5 107.5q0 65 -41 106.5t-102 45.5zM352 96h-208q-54 1 -83 32.5t-29 63.5q0 35 27.5 64.5t68.5 31.5q0 52 30 90t82 38q40 0 67 -22t37 -58q56 2 96 -31t40 -81q0 -53 -35 -90.5t-93 -37.5zM368 32q-7 0 -11.5 -4.5t-4.5 -11.5t4.5 -11.5t11.5 -4.5t11.5 4.5t4.5 11.5
t-4.5 11.5t-11.5 4.5z" />
    <glyph glyph-name="cocktail26" unicode="&#xe021;" horiz-adv-x="494" 
d="M488 416q6 6 6 14q0 12 -12 17q-3 1 -8 1h-455q-8 1 -14 -5q-5 -6 -5 -13.5t5 -12.5l233 -280v-164h-73q-8 0 -13.5 -5.5t-5.5 -13t5.5 -13t13.5 -5.5h183q7 0 12.5 5.5t5.5 13t-5.5 13t-12.5 5.5h-74v164zM256 174l-199 237h382z" />
    <glyph glyph-name="code30" unicode="&#xe022;" horiz-adv-x="591" 
d="M152 104l-103 82l103 83q5 6 5 14t-5.5 13.5t-14 5.5t-13.5 -6l-118 -95q-6 -6 -6 -15q0 -8 6 -14l118 -96q5 -5 13.5 -5t14 5.5t5.5 13.5t-5 14zM432 445q-7 4 -14.5 2t-12.5 -9l-246 -474q-4 -7 -2 -15.5t10 -10.5q19 -6 26 7l247 474q4 7 1.5 14.5t-9.5 11.5zM585 201
l-118 96q-6 5 -14 5t-14 -5.5t-6 -13.5t6 -14l102 -82l-102 -83q-6 -6 -6 -14t6 -13.5t14 -5.5t14 6l118 95q6 6 6 15q0 8 -6 14z" />
    <glyph glyph-name="collapse5" unicode="&#xe023;" horiz-adv-x="513" 
d="M208 160h-142q-6 0 -11 -4.5t-5 -11t5 -11t11 -4.5h105l-171 -171l22 -22l171 170v-104q0 -6 4.5 -10.5t11 -4.5t11.5 4.5t5 10.5v142q0 7 -6 12q-4 4 -11 4zM447 255h-105l171 171l-23 22l-171 -170l1 104q0 6 -4.5 10.5t-11.5 4.5t-11.5 -4.5t-4.5 -10.5v-142
q0 -7 5 -11q5 -5 11 -5h143q6 0 10.5 4.5t4.5 11t-4.5 11t-10.5 4.5z" />
    <glyph glyph-name="comment45" unicode="&#xe024;" 
d="M256 448q-106 0 -181 -64.5t-75 -155.5q0 -74 52 -132t133 -78l71 -82l71 82q81 20 133 78t52 132q0 91 -75 155.5t-181 64.5zM312 54l-35 -44l-21 -26l-56 70q-73 15 -120.5 64.5t-47.5 113.5q0 76 65.5 130t158.5 54t158.5 -54t65.5 -130q0 -64 -47.5 -113.5
t-120.5 -64.5z" />
    <glyph glyph-name="compass80" unicode="&#xe025;" 
d="M273 183.5q0 10.5 -7.5 18t-18 7.5t-18 -7.5t-7.5 -18t7.5 -18t18 -7.5t18 7.5t7.5 18zM197 96l15 78l-29 17l-23 -158l126 99l-29 17zM238 219l60 53l-16 -79l30 -17l22 158l-126 -98zM256 448q-106 0 -181 -75t-75 -181t75 -181t181 -75t181 75t75 181t-75 181t-181 75
zM256 -30q-92 0 -157 65t-65 157t65 157t157 65t157 -65t65 -157t-65 -157t-157 -65z" />
    <glyph glyph-name="contract5" unicode="&#xe026;" 
d="M224 176h-144q-7 0 -11.5 -4.5t-4.5 -11.5t4.5 -11.5t11.5 -4.5h106l-109 -109l23 -22l109 108l-1 -105q0 -7 4.5 -11.5t11.5 -4.5t11.5 4.5t4.5 11.5v144q0 7 -5 11q-5 5 -11 5zM432 240h-106l109 109l-23 22l-109 -108l1 105q0 7 -4.5 11.5t-11.5 4.5t-11.5 -4.5
t-4.5 -11.5v-144q0 -7 5 -11q5 -5 11 -5h144q7 0 11.5 4.5t4.5 11.5t-4.5 11.5t-11.5 4.5zM448 448h-384q-27 0 -45.5 -18.5t-18.5 -45.5v-384q0 -27 18.5 -45.5t45.5 -18.5h384q27 0 45.5 18.5t18.5 45.5v384q0 27 -18.5 45.5t-45.5 18.5zM480 0q0 -13 -9.5 -22.5
t-22.5 -9.5h-384q-13 0 -22.5 9.5t-9.5 22.5v384q0 13 9.5 22.5t22.5 9.5h384q13 0 22.5 -9.5t9.5 -22.5v-384z" />
    <glyph glyph-name="copy23" unicode="&#xe027;" horiz-adv-x="448" 
d="M336 448h-192q-25 0 -44.5 -19.5t-19.5 -44.5h-18q-26 0 -44 -19.5t-18 -44.5v-320q0 -25 19.5 -44.5t44.5 -19.5h240q25 0 44.5 19.5t19.5 44.5h16q25 0 44.5 19.5t19.5 44.5v256zM304 -32h-240q-13 0 -22.5 10t-9.5 22v320q0 12 9 21.5t21 9.5l18 1v-288
q0 -25 19.5 -44.5t44.5 -19.5h192q0 -12 -9.5 -22t-22.5 -10zM416 64q0 -12 -9.5 -22t-22.5 -10h-240q-13 0 -22.5 10t-9.5 22v320q0 12 9.5 22t22.5 10h160v-64q0 -25 19.5 -44.5t44.5 -19.5h48v-224zM368 320q-12 0 -22 17t-10 31v48l80 -96h-48zM336 224h-144
q-7 0 -11.5 -5t-4.5 -11.5t4.5 -11t11.5 -4.5h144q7 0 11.5 4.5t4.5 11t-4.5 11.5t-11.5 5zM336 144h-144q-7 0 -11.5 -5t-4.5 -11.5t4.5 -11t11.5 -4.5h144q7 0 11.5 4.5t4.5 11t-4.5 11.5t-11.5 5z" />
    <glyph glyph-name="crescent23" unicode="&#xe028;" horiz-adv-x="352" 
d="M180 192q0 82 48 147.5t124 92.5q-44 16 -90 16q-109 0 -185.5 -75t-76.5 -181t76.5 -181t185.5 -75q46 0 90 16q-76 27 -124 92.5t-48 147.5zM228 -32q-30 2 -64 20.5t-63.5 47t-48.5 70.5t-19 86t19 85.5t48 70.5t63 47t65 21q17 1 34 0q-44 -27 -79.5 -91.5
t-35.5 -132.5q0 -73 31.5 -134.5t83.5 -89.5q-15 -1 -34 0z" />
    <glyph glyph-name="cropping1" unicode="&#xe029;" 
d="M496 32h-48v272l-32 -32v-240h-298l349 365l-22 22l-349 -364v297h224l30 32h-254v48q0 7 -4.5 11.5t-11.5 4.5t-11.5 -4.5t-4.5 -11.5v-48h-48q-7 0 -11.5 -4.5t-4.5 -11.5t4.5 -11.5t11.5 -4.5h48v-320v-32h352v-48q0 -7 4.5 -11.5t11.5 -4.5t11.5 4.5t4.5 11.5v48h48
q7 0 11.5 4.5t4.5 11.5t-4.5 11.5t-11.5 4.5z" />
    <glyph glyph-name="cross81" unicode="&#xe02a;" 
d="M372 192l116 116q24 24 24 58t-24 58t-58 24t-58 -24l-116 -116l-116 116q-24 24 -58 24t-58 -24t-24 -58t24 -58l116 -116l-116 -116q-24 -24 -24 -58t24 -58t58 -24t58 24l116 116l116 -116q24 -24 58 -24t58 24t24 58t-24 58zM459 -11q-12 -12 -29 -12t-29 12
l-145 145l-145 -145q-12 -12 -29 -12t-29 12t-12 29t12 29l145 145l-145 145q-12 12 -12 29t12 29t29 12t29 -12l145 -145l145 145q12 12 29 12t29 -12t12 -29t-12 -29l-145 -145l145 -145q12 -12 12 -29t-12 -29z" />
    <glyph glyph-name="cross83" unicode="&#xe02b;" 
d="M335 271.5q-11 11.5 -22 -0.5l-57 -56l-57 56q-11 12 -22.5 0.5t0.5 -22.5l56 -57l-56 -57q-12 -11 -0.5 -22.5t22.5 0.5l57 56l57 -56q11 -12 22.5 -0.5t-0.5 22.5l-56 57l56 57q11 11 0 22.5zM448 448h-384q-27 0 -45.5 -18.5t-18.5 -45.5v-384q0 -27 18.5 -45.5
t45.5 -18.5h384q27 0 45.5 18.5t18.5 45.5v384q0 27 -18.5 45.5t-45.5 18.5zM480 0q0 -13 -9.5 -22.5t-22.5 -9.5h-384q-13 0 -22.5 9.5t-9.5 22.5v384q0 13 9.5 22.5t22.5 9.5h384q13 0 22.5 -9.5t9.5 -22.5v-384z" />
    <glyph glyph-name="cube29" unicode="&#xe02c;" horiz-adv-x="547" 
d="M273 -36l-237 109l-36 19q0 -36 16 -44l232 -105q15 -7 25 -7t26 7l232 105q8 3 12 17t4 27q-36 -19 -37 -19zM273 419zM16 157l232 -104q15 -8 25 -8t26 8l232 104q8 3 12 17t4 27q-36 -18 -37 -18l-237 -110l-237 110l-36 18q0 -36 16 -44zM16 266l232 -104
q15 -7 25 -7t26 7l232 104q13 6 13 25t-13 27l-232 122q-23 14 -51 0l-232 -122q-14 -9 -14 -27t14 -25zM273 419l237 -127l-237 -100l-237 100z" />
    <glyph glyph-name="double97" unicode="&#xe02d;" horiz-adv-x="224" 
d="M207 58l-68 -68v404l68 -68q12 -11 23.5 0t-0.5 23l-95 94q-5 5 -12 5t-12 -5l-95 -94q-12 -12 0 -23q4 -5 11 -5t11 5l69 68v-404l-69 68q-4 5 -11 5t-11 -5q-12 -11 0 -23l95 -94q5 -5 12 -5t12 5l95 94q11 12 0 23t-23 0z" />
    <glyph glyph-name="double98" unicode="&#xe02e;" horiz-adv-x="491" 
d="M233 192q1 10 -6 17l-190 190q-7 6 -15.5 6t-15 -6.5t-6.5 -15t6 -15.5l177 -176l-177 -176q-6 -7 -6 -15.5t6.5 -15t15 -6.5t15.5 6l190 190q7 7 6 17zM485 209l-233 233q-7 6 -15.5 6t-15 -6.5t-6.5 -15t6 -15.5l220 -219l-220 -219q-6 -7 -6 -15.5t6.5 -15t15 -6.5
t15.5 6l233 233q7 7 6 17q1 10 -6 17z" />
    <glyph glyph-name="double99" unicode="&#xe02f;" horiz-adv-x="396" 
d="M392 201l-73 74q-9 9 -17.5 0t-0.5 -18l53 -53h-312l52 53q9 9 0.5 18t-17.5 0l-73 -74q-4 -3 -4 -9t4 -9l73 -74q9 -9 17.5 0t-0.5 18l-52 53h312l-53 -53q-8 -9 0.5 -18t17.5 0l73 74q4 3 4 9t-4 9z" />
    <glyph glyph-name="down55" unicode="&#xe030;" 
d="M370 265l-114 -114l-114 114q-11 11 -22.5 -0.5t-0.5 -22.5l123 -123q6 -5 14 -4q8 -1 14 4l123 123q11 11 -0.5 22.5t-22.5 0.5zM256 448q-106 0 -181 -75t-75 -181t75 -181t181 -75t181 75t75 181t-75 181t-181 75zM256 -32q-93 0 -158.5 65.5t-65.5 158.5t65.5 158.5
t158.5 65.5t158.5 -65.5t65.5 -158.5t-65.5 -158.5t-158.5 -65.5z" />
    <glyph glyph-name="down56" unicode="&#xe031;" 
d="M338 185l-66 -66v169q0 7 -4.5 11.5t-11.5 4.5t-11.5 -4.5t-4.5 -11.5v-169l-66 66q-11 11 -22.5 -0.5t-0.5 -22.5l91 -91q6 -5 14 -4q8 -1 14 4l91 91q11 11 -0.5 22.5t-22.5 0.5zM448 448h-384q-27 0 -45.5 -18.5t-18.5 -45.5v-384q0 -27 18.5 -45.5t45.5 -18.5h384
q27 0 45.5 18.5t18.5 45.5v384q0 27 -18.5 45.5t-45.5 18.5zM480 0q0 -13 -9.5 -22.5t-22.5 -9.5h-384q-13 0 -22.5 9.5t-9.5 22.5v384q0 13 9.5 22.5t22.5 9.5h384q13 0 22.5 -9.5t9.5 -22.5v-384z" />
    <glyph glyph-name="down58" unicode="&#xe032;" horiz-adv-x="448" 
d="M101 148l111 -111q5 -4 12 -4t12 4l110 111q12 11 0.5 22.5t-22.5 0.5l-84 -84v345q0 7 -4.5 11.5t-11.5 4.5t-11.5 -4.5t-4.5 -11.5v-345l-84 84q-11 11 -22.5 -0.5t-0.5 -22.5zM384 384h-48v-32h48q13 0 22.5 -9.5t9.5 -22.5v-320q0 -13 -9.5 -22.5t-22.5 -9.5h-320
q-13 0 -22.5 9.5t-9.5 22.5v320q0 13 9.5 22.5t22.5 9.5h48v32h-48q-27 0 -45.5 -18.5t-18.5 -45.5v-320q0 -27 18.5 -45.5t45.5 -18.5h320q27 0 45.5 18.5t18.5 45.5v320q0 27 -18.5 45.5t-45.5 18.5z" />
    <glyph glyph-name="down59" unicode="&#xe033;" 
d="M448 448h-384q-27 0 -45.5 -18.5t-18.5 -45.5v-384q0 -27 18.5 -45.5t45.5 -18.5h384q27 0 45.5 18.5t18.5 45.5v384q0 27 -18.5 45.5t-45.5 18.5zM480 0q0 -13 -9.5 -22.5t-22.5 -9.5h-384q-13 0 -22.5 9.5t-9.5 22.5v384q0 13 9.5 22.5t22.5 9.5h384q13 0 22.5 -9.5
t9.5 -22.5v-384zM388 283l-132 -133l-133 133q-11 11 -22.5 0t0.5 -23l143 -143q5 -5 12 -5t12 5l143 143q11 12 0 23t-23 0z" />
    <glyph glyph-name="down64" unicode="&#xe034;" horiz-adv-x="396" 
d="M391 303q-5 5 -12 5t-12 -5l-169 -186l-170 186q-5 5 -11.5 5t-11.5 -5t-5 -12t5 -12l180 -198q5 -5 13 -5q7 0 12 5l181 198q5 5 5 12t-5 12z" />
    <glyph glyph-name="download136" unicode="&#xe035;" horiz-adv-x="683" 
d="M454 184l-91 -91v205q0 9 -6.5 15.5t-15.5 6.5t-15 -6.5t-6 -15.5v-205l-91 91q-6 6 -15 6t-15.5 -6.5t-6.5 -15t7 -15.5l126 -126q7 -6 17 -6q9 0 16 6l127 126q6 7 6 15.5t-6.5 15t-15 6.5t-15.5 -6zM492 341q-24 48 -70 77.5t-102 29.5q-76 0 -131 -51.5t-60 -126.5
q-57 -16 -93 -61t-36 -102q0 -68 49.5 -117.5t121.5 -52.5l362 -1q58 25 104 84t46 119q0 80 -55.5 138.5t-135.5 63.5zM533 -21h-362q-6 0 -14.5 1.5t-30.5 10t-39 21t-31 38t-13 57.5q0 49 37.5 87t90.5 41q0 69 41 119.5t108 50.5q53 0 89.5 -29t49.5 -78q75 4 126.5 -44
t54.5 -105q2 -44 -30.5 -94.5t-76.5 -75.5z" />
    <glyph glyph-name="download142" unicode="&#xe036;" horiz-adv-x="480" 
d="M416 448h-352q-27 0 -45.5 -18.5t-18.5 -45.5v-384q0 -27 18.5 -45.5t45.5 -18.5h352q27 0 45.5 18.5t18.5 45.5v384q0 27 -18.5 45.5t-45.5 18.5zM448 0q0 -13 -9.5 -22.5t-22.5 -9.5h-352q-13 0 -22.5 9.5t-9.5 22.5v32h416v-32zM448 64h-416v320q0 13 9.5 22.5
t22.5 9.5h352q13 0 22.5 -9.5t9.5 -22.5v-320zM308 235l-52 -63v196q0 7 -4.5 11.5t-11.5 4.5t-11.5 -4.5t-4.5 -11.5v-196l-53 63q-11 12 -22.5 0.5t0.5 -22.5l79 -96q4 -5 12 -5q7 0 12 5l79 96q11 11 0 22.5t-23 -0.5z" />
    <glyph glyph-name="download146" unicode="&#xe037;" horiz-adv-x="591" 
d="M379 88l-64 -78v280q0 9 -6 14.5t-14 5.5t-13.5 -5.5t-5.5 -14.5v-281l-65 79q-6 6 -14 6t-14 -6t-6 -14.5t6 -13.5l97 -118q6 -6 15 -6t15 6l97 118q6 5 6 13.5t-5.5 14.5t-14 6t-14.5 -6zM571 448h-551q-8 0 -14 -6t-6 -14v-157q0 -8 6 -14t14 -6t13.5 6t5.5 14v138
h512v-138q0 -8 6 -14t14 -6t14 6t6 14v157q0 8 -6 14t-14 6z" />
    <glyph glyph-name="download147" unicode="&#xe038;" 
d="M244 69q4 -5 12 -5q7 0 12 5l79 96q11 11 0 22.5t-23 0.5l-52 -64v244q0 7 -4.5 11.5t-11.5 4.5t-11.5 -4.5t-4.5 -11.5v-244l-53 64q-11 11 -22.5 -0.5t0.5 -22.5zM448 448h-384q-27 0 -45.5 -18.5t-18.5 -45.5v-384q0 -27 18.5 -45.5t45.5 -18.5h384q27 0 45.5 18.5
t18.5 45.5v384q0 27 -18.5 45.5t-45.5 18.5zM480 0q0 -13 -9.5 -22.5t-22.5 -9.5h-384q-13 0 -22.5 9.5t-9.5 22.5v384q0 13 9.5 22.5t22.5 9.5h384q13 0 22.5 -9.5t9.5 -22.5v-384zM400 32h-288q-7 0 -11.5 -4.5t-4.5 -11.5t4.5 -11.5t11.5 -4.5h288q7 0 11.5 4.5t4.5 11.5
t-4.5 11.5t-11.5 4.5z" />
    <glyph glyph-name="download148" unicode="&#xe039;" 
d="M338 201l-66 -66v169q0 7 -4.5 11.5t-11.5 4.5t-11.5 -4.5t-4.5 -11.5v-169l-66 66q-11 11 -22.5 -0.5t-0.5 -22.5l91 -91q6 -5 14 -4q8 -1 14 4l91 91q11 11 -0.5 22.5t-22.5 0.5zM256 448q-106 0 -181 -75t-75 -181t75 -181t181 -75t181 75t75 181t-75 181t-181 75z
M256 -32q-93 0 -158.5 65.5t-65.5 158.5t65.5 158.5t158.5 65.5t158.5 -65.5t65.5 -158.5t-65.5 -158.5t-158.5 -65.5z" />
    <glyph glyph-name="electrical17" unicode="&#xe03a;" horiz-adv-x="683" 
d="M405 213h-85l33 89q4 8 0.5 16.5t-12 12t-16.5 0t-11 -11.5l-49 -119q-4 -8 0 -17q6 -13 20 -13h91l-54 -96q-4 -8 -1 -16.5t11 -12.5t15.5 -0.5t11.5 11.5q68 123 68 136q0 9 -6.5 15t-15.5 6zM492 341q-24 48 -70 77.5t-102 29.5q-76 0 -131 -51.5t-60 -126.5
q-57 -16 -93 -61t-36 -102q0 -68 49.5 -117.5t121.5 -52.5l10 -0.5t27 -0.5h39h47h49.5h47h40h28h10.5q85 0 149.5 60t64.5 143q0 80 -55.5 138.5t-135.5 63.5zM469 -21h-298q-6 0 -14.5 1.5t-30.5 10t-39 21t-31 38t-13 57.5q0 48 38 86t90 42q0 69 41 119.5t108 50.5
q53 0 89.5 -29t49.5 -78q75 4 126.5 -44t54.5 -105q3 -67 -53 -118.5t-118 -51.5z" />
    <glyph glyph-name="electronic57" unicode="&#xe03b;" horiz-adv-x="745" 
d="M652 448h-559q-38 0 -65.5 -27.5t-27.5 -65.5v-326q0 -38 27.5 -65.5t65.5 -27.5h559q38 0 65.5 27.5t27.5 65.5v326q0 38 -27.5 65.5t-65.5 27.5zM698 29q0 -19 -13.5 -32.5t-32.5 -13.5h-559q-19 0 -32.5 13.5t-13.5 32.5v326q0 19 13.5 32.5t32.5 13.5h559
q19 0 32.5 -13.5t13.5 -32.5v-326zM116.5 215q-9.5 0 -16.5 -6.5t-7 -16.5t7 -16.5t16.5 -6.5t16.5 6.5t7 16.5t-7 16.5t-16.5 6.5zM116.5 122q-9.5 0 -16.5 -6.5t-7 -16.5t7 -16.5t16.5 -6.5t16.5 6.5t7 16.5t-7 16.5t-16.5 6.5zM628.5 122q-9.5 0 -16.5 -6.5t-7 -16.5
t7 -16.5t16.5 -6.5t16.5 6.5t7 16.5t-7 16.5t-16.5 6.5zM628.5 215q-9.5 0 -16.5 -6.5t-7 -16.5t7 -16.5t16.5 -6.5t16.5 6.5t7 16.5t-7 16.5t-16.5 6.5zM535 355h-326q-9 0 -16 -7t-7 -16v-280q0 -9 7 -16t16 -7h326q10 0 17 7t7 16v280q0 9 -7 16t-17 7zM512 99
q0 -10 -7 -16.5t-16 -6.5h-233q-10 0 -16.5 6.5t-6.5 16.5v186q0 10 6.5 16.5t16.5 6.5h233q9 0 16 -6.5t7 -16.5v-186z" />
    <glyph glyph-name="email64" unicode="&#xe03c;" horiz-adv-x="683" 
d="M597 448h-512q-35 0 -60 -25t-25 -60v-342q0 -35 25 -60t60 -25h512q36 0 61 25t25 60v342q0 35 -25 60t-61 25zM619 405l-278 -213l-277 213h555zM43 21v342l192 -150l-190 -204q-2 7 -2 12zM76 -20l192 205l73 -55l70 55l196 -205q-2 -1 -265.5 -1t-265.5 1zM638 9
l-190 204l192 150v-342q0 -5 -2 -12z" />
    <glyph glyph-name="email67" unicode="&#xe03d;" horiz-adv-x="480" 
d="M416 448h-352q-27 0 -45.5 -18.5t-18.5 -45.5v-384q0 -27 18.5 -45.5t45.5 -18.5h352q27 0 45.5 18.5t18.5 45.5v384q0 27 -18.5 45.5t-45.5 18.5zM64 416h352q9 0 17 -5l-65 -59h-256l-65 59q8 5 17 5zM448 0q0 -13 -9.5 -22.5t-22.5 -9.5h-352q-13 0 -22.5 9.5
t-9.5 22.5v380l64 -60h288l64 60v-380z" />
    <glyph glyph-name="equalization3" unicode="&#xe03e;" horiz-adv-x="549" 
d="M110 227v203q0 7 -5.5 12.5t-13 5.5t-13 -5.5t-5.5 -12.5v-203q-31 -7 -52 -32t-21 -58t21 -58t52 -31v-94q0 -7 5.5 -12.5t13 -5.5t13 5.5t5.5 12.5v94q31 6 52 31t21 58t-21 58t-52 32zM91.5 82q-22.5 0 -38.5 16t-16 39t16 39t38.5 16t38.5 -16t16 -39t-16 -39
t-38.5 -16zM293 410v20q0 7 -5.5 12.5t-13 5.5t-13 -5.5t-5.5 -12.5v-20q-32 -7 -52.5 -32t-20.5 -58t20.5 -58t52.5 -32v-276q0 -7 5.5 -12.5t13 -5.5t13 5.5t5.5 12.5v276q31 7 52 32t21 58t-21 58t-52 32zM274.5 265q-22.5 0 -39 16t-16.5 39t16.5 39t39 16t38.5 -16
t16 -39t-16 -39t-38.5 -16zM475 154v276q0 7 -5 12.5t-12.5 5.5t-13 -5.5t-5.5 -12.5v-276q-32 -7 -52.5 -32t-20.5 -58t20.5 -58t52.5 -32v-20q0 -7 5.5 -12.5t13 -5.5t12.5 5.5t5 12.5v20q32 7 53 32t21 58t-21 58t-53 32zM457 9q-23 0 -39 16t-16 39t16 39t39 16t39 -16
t16 -39t-16 -39t-39 -16z" />
    <glyph glyph-name="equalizer26" unicode="&#xe03f;" 
d="M416 320h-178q-6 21 -23 34.5t-39 13.5t-39 -13.5t-23 -34.5h-18q-7 0 -11.5 -4.5t-4.5 -11.5t4.5 -11.5t11.5 -4.5h18q6 -21 23 -34.5t39 -13.5t39 13.5t23 34.5h178q7 0 11.5 4.5t4.5 11.5t-4.5 11.5t-11.5 4.5zM176 266q-16 0 -27 11t-11 27t11 27t27 11t27 -11
t11 -27t-11 -27t-27 -11zM416 64h-178q-6 21 -23 34.5t-39 13.5t-39 -13.5t-23 -34.5h-18q-7 0 -11.5 -4.5t-4.5 -11.5t4.5 -11.5t11.5 -4.5h18q6 -21 23 -34.5t39 -13.5t39 13.5t23 34.5h178q7 0 11.5 4.5t4.5 11.5t-4.5 11.5t-11.5 4.5zM176 10q-16 0 -27 11t-11 27t11 27
t27 11t27 -11t11 -27t-11 -27t-27 -11zM416 192h-34q-6 21 -23 34.5t-39 13.5t-39 -13.5t-23 -34.5h-162q-7 0 -11.5 -4.5t-4.5 -11.5t4.5 -11.5t11.5 -4.5h162q6 -21 23 -34.5t39 -13.5t39 13.5t23 34.5h34q7 0 11.5 4.5t4.5 11.5t-4.5 11.5t-11.5 4.5zM320 138
q-16 0 -27 11t-11 27t11 27t27 11t27 -11t11 -27t-11 -27t-27 -11zM448 448h-384q-27 0 -45.5 -18.5t-18.5 -45.5v-384q0 -27 18.5 -45.5t45.5 -18.5h384q27 0 45.5 18.5t18.5 45.5v384q0 27 -18.5 45.5t-45.5 18.5zM480 0q0 -13 -9.5 -22.5t-22.5 -9.5h-384
q-13 0 -22.5 9.5t-9.5 22.5v384q0 13 9.5 22.5t22.5 9.5h384q13 0 22.5 -9.5t9.5 -22.5v-384z" />
    <glyph glyph-name="event6" unicode="&#xe040;" horiz-adv-x="480" 
d="M416 448h-352q-27 0 -45.5 -18.5t-18.5 -45.5v-384q0 -27 18.5 -45.5t45.5 -18.5h352q27 0 45.5 18.5t18.5 45.5v384q0 27 -18.5 45.5t-45.5 18.5zM448 0q0 -13 -9.5 -22.5t-22.5 -9.5h-352q-13 0 -22.5 9.5t-9.5 22.5v320h416v-320zM448 352h-416v32q0 13 9.5 22.5
t22.5 9.5h352q13 0 22.5 -9.5t9.5 -22.5v-32zM368 160q20 0 34 14t14 34t-14 34t-34 14t-34 -14t-14 -34t14 -34t34 -14zM352 224h32v-32h-32v32zM368 32q20 0 34 14t14 34t-14 34t-34 14t-34 -14t-14 -34t14 -34t34 -14zM352 96h32v-32h-32v32zM112 160q20 0 34 14t14 34
t-14 34t-34 14t-34 -14t-14 -34t14 -34t34 -14zM96 224h32v-32h-32v32zM240 160q20 0 34 14t14 34t-14 34t-34 14t-34 -14t-14 -34t14 -34t34 -14zM224 224h32v-32h-32v32zM112 32q20 0 34 14t14 34t-14 34t-34 14t-34 -14t-14 -34t14 -34t34 -14zM96 96h32v-32h-32v32z
M240 32q20 0 34 14t14 34t-14 34t-34 14t-34 -14t-14 -34t14 -34t34 -14zM224 96h32v-32h-32v32z" />
    <glyph glyph-name="expand25" unicode="&#xe041;" 
d="M224 32h-106l109 109l-23 22l-109 -108l1 105q0 7 -4.5 11.5t-11.5 4.5t-11.5 -4.5t-4.5 -11.5v-144q0 -7 5 -11q5 -5 11 -5h144q7 0 11.5 4.5t4.5 11.5t-4.5 11.5t-11.5 4.5zM448 448h-384q-27 0 -45.5 -18.5t-18.5 -45.5v-384q0 -27 18.5 -45.5t45.5 -18.5h384
q27 0 45.5 18.5t18.5 45.5v384q0 27 -18.5 45.5t-45.5 18.5zM480 0q0 -13 -9.5 -22.5t-22.5 -9.5h-384q-13 0 -22.5 9.5t-9.5 22.5v384q0 13 9.5 22.5t22.5 9.5h384q13 0 22.5 -9.5t9.5 -22.5v-384zM432 384h-144q-7 0 -11.5 -4.5t-4.5 -11.5t4.5 -11.5t11.5 -4.5h106
l-109 -109l23 -22l109 108l-1 -105q0 -7 4.5 -11.5t11.5 -4.5t11.5 4.5t4.5 11.5v144q0 7 -5 11q-5 5 -11 5z" />
    <glyph glyph-name="expanding2" unicode="&#xe042;" 
d="M204 163l-172 -172v105q0 7 -4.5 11.5t-11.5 4.5t-11.5 -4.5t-4.5 -11.5v-144q0 -7 5 -11q5 -5 11 -5h144q7 0 11.5 4.5t4.5 11.5t-4.5 11.5t-11.5 4.5h-106l173 173zM507 443q-5 5 -11 5h-144q-7 0 -11.5 -4.5t-4.5 -11.5t4.5 -11.5t11.5 -4.5h106l-173 -173l23 -22
l172 172v-105q0 -7 4.5 -11.5t11.5 -4.5t11.5 4.5t4.5 11.5v144q0 7 -5 11z" />
    <glyph glyph-name="fast33" unicode="&#xe043;" horiz-adv-x="585" 
d="M575 218l-311 223q-44 24 -44 -29v-97l-176 126q-11 6 -20.5 6.5t-16.5 -8.5t-7 -28v-438q0 -27 15 -34.5t29 3.5l176 126v-96q0 -26 15 -33.5t29 3.5l311 223q10 7 10.5 26.5t-10.5 26.5zM257 -14v154l-220 -154v411l220 -154v154l293 -206z" />
    <glyph glyph-name="favourites5" unicode="&#xe044;" 
d="M512 252l-177 27l-79 169l-79 -169l-177 -27l128 -131l-30 -185l158 88l158 -88l-30 185zM256 61l-119 -67l23 134l-103 105l139 18l60 128l60 -128l138 -20l-102 -103l21 -134z" />
    <glyph glyph-name="file68" unicode="&#xe045;" horiz-adv-x="416" 
d="M288 448v-1l-4.5 0.5t-10.5 0.5h-17h-192q-27 0 -45.5 -19t-18.5 -45v-384q0 -27 18.5 -45.5t45.5 -18.5h288q26 0 45 18.5t19 45.5v320zM384 0q0 -13 -9.5 -22.5t-22.5 -9.5h-288q-13 0 -22.5 9.5t-9.5 22.5v384q0 13 9.5 22.5t22.5 9.5h192v-64q0 -27 18.5 -45.5
t45.5 -18.5h64v-288zM320 320q-13 0 -22.5 9.5t-9.5 22.5v64l96 -96h-64z" />
    <glyph glyph-name="file69" unicode="&#xe046;" horiz-adv-x="416" 
d="M304 96h-192q-7 0 -11.5 -4.5t-4.5 -11.5t4.5 -11.5t11.5 -4.5h192q7 0 11.5 4.5t4.5 11.5t-4.5 11.5t-11.5 4.5zM288 448v-1l-4.5 0.5t-10.5 0.5h-17h-192q-27 0 -45.5 -19t-18.5 -45v-384q0 -27 18.5 -45.5t45.5 -18.5h288q26 0 45 18.5t19 45.5v320zM384 0
q0 -13 -9.5 -22.5t-22.5 -9.5h-288q-13 0 -22.5 9.5t-9.5 22.5v384q0 13 9.5 22.5t22.5 9.5h192v-64q0 -27 18.5 -45.5t45.5 -18.5h64v-288zM320 320q-13 0 -22.5 9.5t-9.5 22.5v64l96 -96h-64zM304 192h-192q-7 0 -11.5 -4.5t-4.5 -11.5t4.5 -11.5t11.5 -4.5h192
q7 0 11.5 4.5t4.5 11.5t-4.5 11.5t-11.5 4.5z" />
    <glyph glyph-name="film57" unicode="&#xe047;" horiz-adv-x="410" 
d="M341 448h-273q-28 0 -48 -20t-20 -48v-444h68h273h69v444q0 28 -20 48t-49 20zM68 -30h-34v34h34v-34zM68 38h-34v35h34v-35zM68 107h-34v34h34v-34zM68 175h-34v34h34v-34zM68 243h-34v34h34v-34zM68 311h-34v35h34v-35zM307 -13q0 -7 -5 -12t-12 -5h-171q-7 0 -12 5
t-5 12v171q0 7 5 12t12 5h171q7 0 12 -5t5 -12v-171zM307 226q0 -7 -5 -12t-12 -5h-171q-7 0 -12 5t-5 12v171q0 7 5 12t12 5h171q7 0 12 -5t5 -12v-171zM375 -30h-34v34h34v-34zM375 38h-34v35h34v-35zM375 107h-34v34h34v-34zM375 175h-34v34h34v-34zM375 243h-34v34h34
v-34zM375 311h-34v35h34v-35z" />
    <glyph glyph-name="flag53" unicode="&#xe048;" horiz-adv-x="400" 
d="M368 336h-96v32q0 13 -9.5 22.5t-22.5 9.5h-144v16q0 13 -9.5 22.5t-22.5 9.5h-32q-13 0 -22.5 -9.5t-9.5 -22.5v-448q0 -13 9.5 -22.5t22.5 -9.5h32q13 0 22.5 9.5t9.5 22.5v144h144v-16q0 -13 9.5 -22.5t22.5 -9.5h96q13 0 22.5 9.5t9.5 22.5v208q0 13 -9.5 22.5
t-22.5 9.5zM64 -16q0 -7 -4.5 -11.5t-11.5 -4.5t-11.5 4.5t-4.5 11.5v416q0 7 4.5 11.5t11.5 4.5t11.5 -4.5t4.5 -11.5v-416zM240 160q0 -7 -4.5 -11.5t-11.5 -4.5h-128v224h128q7 0 11.5 -4.5t4.5 -11.5v-192zM368 112q0 -7 -4.5 -11.5t-11.5 -4.5h-80v208h80
q7 0 11.5 -4.5t4.5 -11.5v-176z" />
    <glyph glyph-name="fog10" unicode="&#xe049;" horiz-adv-x="546" 
d="M290 -30h-171q-7 0 -12 -5t-5 -12t5 -12t12 -5h171q7 0 12 5t5 12t-5 12t-12 5zM529 107h-249q-7 32 -7 59q0 87 51 156t131 96q-57 30 -122 30q-110 0 -187.5 -77.5t-77.5 -187.5q0 -39 12 -76h-63q-7 0 -12 -5t-5 -12t5 -12t12 -5h512q7 0 12 5t5 12t-5 12t-12 5z
M119 107q-17 38 -17 73q0 40 9 72.5t20.5 53t33 40t35.5 28.5t39 23q33 15 72 19.5t64 -2.5q-54 -26 -95.5 -98t-41.5 -153q0 -26 5 -56h-124zM324 38h-239q-7 0 -12 -5t-5 -12t5 -12t12 -5h239q7 0 12 5t5 12t-5 12t-12 5z" />
    <glyph glyph-name="foggy3" unicode="&#xe04a;" horiz-adv-x="549" 
d="M95 155q13 64 63.5 105.5t116 41.5t115.5 -41.5t63 -105.5h39q-11 78 -73 130.5t-145 52.5t-144.5 -52.5t-72.5 -130.5h38zM55 294q5 -5 12.5 -5t13 5.5t5.5 13t-5 12.5l-26 26q-6 5 -13.5 5t-12.5 -5.5t-5 -13t5 -12.5zM494 294l26 26q5 5 5 13t-5.5 13t-13 5t-12.5 -5
l-26 -26q-6 -5 -6 -13t5.5 -13t13 -5t13.5 5zM274.5 375q7.5 0 13 5.5t5.5 12.5v37q0 7 -5.5 12.5t-13 5.5t-13 -5.5t-5.5 -12.5v-37q0 -7 5.5 -12.5t13 -5.5zM530 119h-512q-7 0 -12.5 -5.5t-5.5 -13t5.5 -13t12.5 -5.5h512q8 0 13.5 5.5t5.5 13t-5.5 13t-13.5 5.5z
M457 -27h-366q-7 0 -12.5 -5.5t-5.5 -13t5.5 -13t12.5 -5.5h366q8 0 13 5.5t5 13t-5 13t-13 5.5zM512 46h-475q-8 0 -13.5 -5.5t-5.5 -13t5.5 -13t13.5 -5.5h475q8 0 13 5.5t5 13t-5 13t-13 5.5z" />
    <glyph glyph-name="folder173" unicode="&#xe04b;" 
d="M448 384h-224q0 27 -18.5 45.5t-45.5 18.5h-96q-27 0 -45.5 -18.5t-18.5 -45.5v-384q0 -27 18.5 -45.5t45.5 -18.5h384q27 0 45.5 18.5t18.5 45.5v320q0 27 -18.5 45.5t-45.5 18.5zM480 0q0 -13 -9.5 -22.5t-22.5 -9.5h-384q-13 0 -22.5 9.5t-9.5 22.5v256h448v-256z
M480 288h-448v96q0 13 9.5 22.5t22.5 9.5h96q13 0 22.5 -9.5t9.5 -22.5v-32h256q13 0 22.5 -9.5t9.5 -22.5v-32z" />
    <glyph glyph-name="fork34" unicode="&#xe04c;" horiz-adv-x="160" 
d="M144 448q-7 0 -11.5 -4.5t-4.5 -11.5v-112q0 -33 -32 -45v157q0 7 -4.5 11.5t-11.5 4.5t-11.5 -4.5t-4.5 -11.5v-157q-32 12 -32 45v112q0 7 -4.5 11.5t-11.5 4.5t-11.5 -4.5t-4.5 -11.5v-112q0 -29 18 -51t46 -27v-290q0 -7 4.5 -11.5t11.5 -4.5t11.5 4.5t4.5 11.5v290
q28 5 46 27t18 51v112q0 7 -4.5 11.5t-11.5 4.5z" />
    <glyph glyph-name="four87" unicode="&#xe04d;" 
d="M146 155h-73q-30 0 -51.5 -21t-21.5 -52v-73q0 -30 21.5 -51.5t51.5 -21.5h73q31 0 52 21.5t21 51.5v73q0 31 -21 52t-52 21zM183 9q0 -15 -11 -25.5t-26 -10.5h-73q-15 0 -25.5 10.5t-10.5 25.5v73q0 15 10.5 26t25.5 11h73q15 0 26 -11t11 -26v-73zM439 448h-73
q-31 0 -52 -21.5t-21 -51.5v-73q0 -31 21 -52t52 -21h73q30 0 51.5 21t21.5 52v73q0 30 -21.5 51.5t-51.5 21.5zM475 302q0 -15 -10.5 -26t-25.5 -11h-73q-15 0 -26 11t-11 26v73q0 15 11 25.5t26 10.5h73q15 0 25.5 -10.5t10.5 -25.5v-73zM439 155h-73q-31 0 -52 -21
t-21 -52v-73q0 -30 21 -51.5t52 -21.5h73q30 0 51.5 21.5t21.5 51.5v73q0 31 -21.5 52t-51.5 21zM475 9q0 -15 -10.5 -25.5t-25.5 -10.5h-73q-15 0 -26 10.5t-11 25.5v73q0 15 11 26t26 11h73q15 0 25.5 -11t10.5 -26v-73zM146 448h-73q-30 0 -51.5 -21.5t-21.5 -51.5v-73
q0 -31 21.5 -52t51.5 -21h73q31 0 52 21t21 52v73q0 30 -21 51.5t-52 21.5zM183 302q0 -15 -11 -26t-26 -11h-73q-15 0 -25.5 11t-10.5 26v73q0 15 10.5 25.5t25.5 10.5h73q15 0 26 -10.5t11 -25.5v-73z" />
    <glyph glyph-name="full40" unicode="&#xe04e;" 
d="M204 163l-76 -76v41q0 7 -4.5 11.5t-11.5 4.5t-11.5 -4.5t-4.5 -11.5v-80q0 -7 5 -11q5 -5 11 -5h80q7 0 11.5 4.5t4.5 11.5t-4.5 11.5t-11.5 4.5h-42l77 77zM192 320q7 0 11.5 4.5t4.5 11.5t-4.5 11.5t-11.5 4.5h-80q-6 0 -11 -5q-5 -4 -5 -11v-80q0 -7 4.5 -11.5
t11.5 -4.5t11.5 4.5t4.5 11.5v41l76 -76l23 22l-77 77h42zM400 144q-7 0 -11.5 -4.5t-4.5 -11.5v-41l-76 76l-23 -22l77 -77h-42q-7 0 -11.5 -4.5t-4.5 -11.5t4.5 -11.5t11.5 -4.5h80q6 0 11 5q5 4 5 11v80q0 7 -4.5 11.5t-11.5 4.5zM400 352h-80q-7 0 -11.5 -4.5
t-4.5 -11.5t4.5 -11.5t11.5 -4.5h42l-77 -77l23 -22l76 76v-41q0 -7 4.5 -11.5t11.5 -4.5t11.5 4.5t4.5 11.5v80q0 7 -5 11q-5 5 -11 5zM448 448h-384q-27 0 -45.5 -18.5t-18.5 -45.5v-384q0 -27 18.5 -45.5t45.5 -18.5h384q27 0 45.5 18.5t18.5 45.5v384q0 27 -18.5 45.5
t-45.5 18.5zM480 0q0 -13 -9.5 -22.5t-22.5 -9.5h-384q-13 0 -22.5 9.5t-9.5 22.5v384q0 13 9.5 22.5t22.5 9.5h384q13 0 22.5 -9.5t9.5 -22.5v-384z" />
    <glyph glyph-name="games32" unicode="&#xe04f;" horiz-adv-x="416" 
d="M240 32q-7 0 -11.5 -4.5t-4.5 -11.5t4.5 -11.5t11.5 -4.5t11.5 4.5t4.5 11.5t-4.5 11.5t-11.5 4.5zM256 96q-7 0 -11.5 -4.5t-4.5 -11.5t4.5 -11.5t11.5 -4.5t11.5 4.5t4.5 11.5t-4.5 11.5t-11.5 4.5zM144 64h-16v16q0 7 -4.5 11.5t-11.5 4.5t-11.5 -4.5t-4.5 -11.5v-16
h-16q-7 0 -11.5 -4.5t-4.5 -11.5t4.5 -11.5t11.5 -4.5h16v-16q0 -7 4.5 -11.5t11.5 -4.5t11.5 4.5t4.5 11.5v16h16q7 0 11.5 4.5t4.5 11.5t-4.5 11.5t-11.5 4.5zM352 448h-288q-27 0 -45.5 -18.5t-18.5 -45.5v-384q0 -27 18.5 -45.5t45.5 -18.5h288q27 0 45.5 18.5
t18.5 45.5v384q0 27 -18.5 45.5t-45.5 18.5zM384 0q0 -13 -9.5 -22.5t-22.5 -9.5h-288q-13 0 -22.5 9.5t-9.5 22.5v384q0 13 9.5 22.5t22.5 9.5h288q13 0 22.5 -9.5t9.5 -22.5v-384zM320 32q-7 0 -11.5 -4.5t-4.5 -11.5t4.5 -11.5t11.5 -4.5t11.5 4.5t4.5 11.5t-4.5 11.5
t-11.5 4.5zM320 384h-224q-13 0 -22.5 -9.5t-9.5 -22.5v-192q0 -13 9.5 -22.5t22.5 -9.5h224q13 0 22.5 9.5t9.5 22.5v192q0 13 -9.5 22.5t-22.5 9.5zM320 176q0 -7 -4.5 -11.5t-11.5 -4.5h-192q-7 0 -11.5 4.5t-4.5 11.5v160q0 7 4.5 11.5t11.5 4.5h192q7 0 11.5 -4.5
t4.5 -11.5v-160zM336 96q-7 0 -11.5 -4.5t-4.5 -11.5t4.5 -11.5t11.5 -4.5t11.5 4.5t4.5 11.5t-4.5 11.5t-11.5 4.5z" />
    <glyph glyph-name="gear30" unicode="&#xe050;" 
d="M498 132l-40 23q4 20 4 37t-4 37l40 23q12 7 15.5 21t-3.5 26l-33 59q-7 12 -21 16t-26 -3l-40 -24q-29 26 -63 38v29q0 14 -10 24t-24 10h-68q-14 0 -24 -10t-10 -24v-29q-34 -12 -63 -38l-40 24q-13 7 -26.5 3t-20.5 -16l-33 -59q-7 -12 -3.5 -26t15.5 -21l40 -23
q-4 -20 -4 -37t4 -37l-40 -23q-12 -7 -15.5 -21t3.5 -26l33 -59q7 -12 20.5 -16t26.5 3l40 24q29 -26 63 -38v-29q0 -14 10 -24t24 -10h68q14 0 24 10t10 24v29q34 12 63 38l40 -24q12 -7 26 -3t21 16l33 59q7 12 3.5 26t-15.5 21zM473 87l-17 -29q-4 -6 -10.5 -8t-12.5 2
l-47 27q-38 -43 -93 -54v-38q0 -7 -5 -12t-12 -5h-34q-7 0 -12 5t-5 12v38q-55 11 -93 54l-47 -27q-6 -4 -12.5 -2t-10.5 8l-17 29q-3 6 -1.5 13t8.5 11l47 27q-9 27 -9 54t9 54l-47 27q-7 4 -8.5 11t1.5 13l17 29q4 6 10.5 8t12.5 -2l47 -27q38 43 93 54v38q0 7 5 12t12 5
h34q7 0 12 -5t5 -12v-38q55 -11 93 -54l47 27q6 4 12.5 2t10.5 -8l17 -29q3 -6 1.5 -13t-8.5 -11l-47 -27q9 -27 9 -54t-9 -54l47 -27q7 -4 8.5 -11t-1.5 -13zM259 277q-35 0 -60 -25t-25 -60t25 -60t60 -25t60 25t25 60t-25 60t-60 25zM259 141q-21 0 -36 15t-15 36t15 36
t36 15t36 -15t15 -36t-15 -36t-36 -15z" />
    <glyph glyph-name="giftbox54" unicode="&#xe051;" 
d="M480 352h-121q9 15 9 32q0 27 -18.5 45.5t-45.5 18.5q-29 0 -48 -22q-19 22 -48 22q-27 0 -45.5 -18.5t-18.5 -45.5q0 -17 9 -32h-121q-13 0 -22.5 -9.5t-9.5 -22.5v-32q0 -13 9.5 -22.5t22.5 -9.5v-256q0 -27 18.5 -45.5t45.5 -18.5h320q27 0 45.5 18.5t18.5 45.5v256
q13 0 22.5 9.5t9.5 22.5v32q0 13 -9.5 22.5t-22.5 9.5zM304 416q13 0 22.5 -9.5t9.5 -22.5t-9.5 -22.5t-22.5 -9.5t-22.5 9.5t-9.5 22.5t9.5 22.5t22.5 9.5zM208 416q13 0 22.5 -9.5t9.5 -22.5t-9.5 -22.5t-22.5 -9.5t-22.5 9.5t-9.5 22.5t9.5 22.5t22.5 9.5zM240 -32h-144
q-13 0 -22.5 9.5t-9.5 22.5v96h176v-128zM240 128h-176v128h176v-128zM448 0q0 -13 -9.5 -22.5t-22.5 -9.5h-144v128h176v-96zM448 128h-176v128h176v-128zM464 288h-416q-7 0 -11.5 4.5t-4.5 11.5t4.5 11.5t11.5 4.5h416q7 0 11.5 -4.5t4.5 -11.5t-4.5 -11.5t-11.5 -4.5z
" />
    <glyph glyph-name="graphical8" unicode="&#xe052;" 
d="M256 128q7 0 11.5 4.5t4.5 11.5v192q0 7 -4.5 11.5t-11.5 4.5t-11.5 -4.5t-4.5 -11.5v-192q0 -7 4.5 -11.5t11.5 -4.5zM352 128q7 0 11.5 4.5t4.5 11.5v144q0 7 -4.5 11.5t-11.5 4.5t-11.5 -4.5t-4.5 -11.5v-144q0 -7 4.5 -11.5t11.5 -4.5zM160 128q7 0 11.5 4.5
t4.5 11.5v64q0 7 -4.5 11.5t-11.5 4.5t-11.5 -4.5t-4.5 -11.5v-64q0 -7 4.5 -11.5t11.5 -4.5zM0 448v-32h32v-304q0 -28 18 -46t46 -18h96l-64 -112h48l64 112h32l64 -112h48l-64 112h96q28 0 46 18t18 46v304h32v32h-512zM448 112q0 -15 -8.5 -23.5t-23.5 -8.5h-320
q-15 0 -23.5 8.5t-8.5 23.5v304h384v-90v-145.5t0 -68.5z" />
    <glyph glyph-name="headphones32" unicode="&#xe053;" 
d="M479 216q1 12 1 16q0 89 -65.5 152.5t-158.5 63.5t-158.5 -63.5t-65.5 -152.5q0 -4 1 -16q-33 -19 -33 -56v-96q0 -27 18.5 -45.5t45.5 -18.5h10.5h20.5h23h10q26 1 45 20t19 44v96q0 27 -18.5 45.5t-45.5 18.5h-64q0 80 56 136t136 56q81 0 136.5 -54t55.5 -138h-64
q-27 0 -45.5 -18.5t-18.5 -45.5v-96q0 -25 19 -44t45 -20h8h16h8v-48q0 -7 4.5 -11.5t11.5 -4.5t11.5 4.5t4.5 11.5v48q27 0 45.5 18.5t18.5 45.5v96q0 37 -33 56zM108 192h20q13 0 22.5 -9.5t9.5 -22.5v-96q0 -13 -9.5 -22.5t-22.5 -9.5h-14q-18 42 -18 88q0 37 12 72z
M64 192h10q-10 -36 -10 -72q0 -46 15 -88h-15q-13 0 -22.5 9.5t-9.5 22.5v96q0 13 9.5 22.5t22.5 9.5zM398 32h-14q-13 0 -22.5 9.5t-9.5 22.5v96q0 13 9.5 22.5t22.5 9.5h20q12 -35 12 -72q0 -46 -18 -88zM480 64q0 -13 -9.5 -22.5t-22.5 -9.5h-15q15 42 15 88q0 36 -10 72
h10q13 0 22.5 -9.5t9.5 -22.5v-96z" />
    <glyph glyph-name="hot67" unicode="&#xe054;" horiz-adv-x="416" 
d="M366 337q-47 -14 -64.5 -46.5t-13.5 -66.5q-24 28 -35 66.5t-12 65t-1 92.5q-45 -17 -74 -47t-39.5 -66.5t-13.5 -66t-1.5 -65t0.5 -43.5q-18 15 -30 43t-15 49l-3 20q-30 -16 -47 -52.5t-17 -75.5q0 -86 61 -147t147 -61t147 61t61 147q0 28 -12.5 57t-25 62.5
t-12.5 73.5zM216 -32q-75 0 -129.5 54.5t-54.5 127.5q0 40 16 58q-1 -5 4.5 -19.5t15.5 -32t32 -30t49 -10.5l-1.5 27.5t-2 37t-0.5 38t2 43.5t6.5 39.5t11.5 39.5t18.5 31.5t26.5 26.5q-3 -36 1 -70.5t15.5 -67.5t35.5 -56t58 -29q-5 26 -0.5 61.5t20.5 43.5
q2 -27 22.5 -70t20.5 -69q0 -68 -54 -121t-113 -53z" />
    <glyph glyph-name="images21" unicode="&#xe055;" 
d="M128 384q-27 0 -45.5 -18.5t-18.5 -45.5t18.5 -45.5t45.5 -18.5t45.5 18.5t18.5 45.5t-18.5 45.5t-45.5 18.5zM128 288q-13 0 -22.5 9.5t-9.5 22.5t9.5 22.5t22.5 9.5t22.5 -9.5t9.5 -22.5t-9.5 -22.5t-22.5 -9.5zM448 448h-384q-27 0 -45.5 -18.5t-18.5 -45.5v-384
q0 -27 18.5 -45.5t45.5 -18.5h384q27 0 45.5 18.5t18.5 45.5v384q0 27 -18.5 45.5t-45.5 18.5zM64 -32q-13 0 -22.5 9.5t-9.5 22.5v15l127 114l161 -161h-256zM480 0q0 -13 -9.5 -22.5t-22.5 -9.5h-83l-118 119l137 137l96 -96v-128zM480 174l-96 98l-159 -162l-65 66
l-128 -117v325q0 13 9.5 22.5t22.5 9.5h384q13 0 22.5 -9.5t9.5 -22.5v-210z" />
    <glyph glyph-name="ink12" unicode="&#xe056;" horiz-adv-x="320" 
d="M160 448q-44 -53 -102 -172.5t-58 -179.5q0 -66 47 -113t113 -47t113 47t47 113q0 60 -58.5 179.5t-101.5 172.5zM160 -32q-53 0 -90.5 36.5t-37.5 88.5q0 48 47 149.5t81 141.5q33 -39 80.5 -141t47.5 -150q0 -52 -37.5 -88.5t-90.5 -36.5z" />
    <glyph glyph-name="label25" unicode="&#xe057;" 
d="M482 448h-215q-5 0 -8.5 -0.5t-7 -3.5t-5.5 -4.5t-7 -7t-8 -8.5l-212 -211q-19 -19 -19 -46.5t19 -47.5l165 -164q19 -19 46.5 -19t47.5 19l211 211l6.5 6.5l6 6t4.5 5t4 6t1.5 6t0.5 7.5v214q0 13 -9 22t-21 9zM254 -21q-9 -10 -23 -10t-24 10l-164 164q-10 9 -10 23
t10 24l24 23l211 -211zM482 219q0 -13 -16 -29l-165 -164l-211 211l164 163q17 17 28 17h184q7 0 11.5 -4.5t4.5 -10.5v-183zM313.5 341.5q-19.5 -19.5 -19.5 -47t19.5 -46.5t47 -19t46.5 19t19 46.5t-19 47t-46.5 19.5t-47 -19.5zM383.5 271.5q-9.5 -9.5 -23.5 -9.5
t-23.5 9.5t-9.5 23.5t9.5 23.5t23.5 9.5t23.5 -9.5t9.5 -23.5t-9.5 -23.5z" />
    <glyph glyph-name="left144" unicode="&#xe058;" horiz-adv-x="744" 
d="M652 448h-417q-11 1 -18 -7l-209 -231q-8 -7 -7 -18q-1 -10 7 -17l209 -232q6 -6 16 -7h419q38 0 65.5 27.5t27.5 65.5v326q0 38 -27.5 65.5t-65.5 27.5zM698 29q0 -19 -13.5 -32.5t-32.5 -13.5h-408l-189 209l189 209h408q19 0 32.5 -13.5t13.5 -32.5v-326z" />
    <glyph glyph-name="left145" unicode="&#xe059;" horiz-adv-x="745" 
d="M529.5 278.5q-6.5 6.5 -16.5 6.5t-17 -7l-53 -53l-52 52q-7 7 -16.5 7t-16.5 -7t-7 -16.5t7 -16.5l52 -52l-53 -53q-7 -6 -7 -16t7 -17t16.5 -7t16.5 7l53 53l52 -52q7 -7 16.5 -7t16.5 7t7 16.5t-7 16.5l-52 52l54 53q6 7 6 17t-6.5 16.5zM653 448h-418q-11 1 -18 -7
l-209 -231q-8 -7 -7 -18q-1 -10 7 -17l209 -232q7 -6 16 -7h420q38 0 65.5 27.5t27.5 65.5v326q0 38 -27.5 65.5t-65.5 27.5zM699 29q0 -19 -13.5 -32.5t-32.5 -13.5h-408l-190 209l189 209h409q19 0 32.5 -13.5t13.5 -32.5v-326z" />
    <glyph glyph-name="left146" unicode="&#xe05a;" horiz-adv-x="546" 
d="M478 448h-410q-28 0 -48 -20t-20 -48v-376q0 -28 20 -48t48 -20h410q28 0 48 20t20 48v376q0 28 -20 48t-48 20zM102 -30h-34q-14 0 -24 10t-10 24v376q0 14 10 24t24 10h34v-444zM512 4q0 -14 -10 -24t-24 -10h-341v444h341q14 0 24 -10t10 -24v-376zM461 209h-210
l68 56q5 5 5 12.5t-5 12.5t-12 5t-12 -5l-102 -85q-5 -5 -5 -13q0 -7 5 -13l102 -84q5 -5 12 -5t12 5t5 12t-5 12l-67 56h209q7 0 12 5t5 12t-5 12t-12 5z" />
    <glyph glyph-name="left148" unicode="&#xe05b;" horiz-adv-x="298" 
d="M52 192l240 219q6 7 6 15.5t-6 15t-15 6.5t-15 -6l-256 -234q-6 -6 -6 -16t6 -16l256 -234q6 -6 15 -6t15 6.5t6 15t-6 15.5z" />
    <glyph glyph-name="left152" unicode="&#xe05c;" 
d="M256 448q-106 0 -181 -75t-75 -181t75 -181t181 -75t181 75t75 181t-75 181t-181 75zM256 -32q-93 0 -158.5 65.5t-65.5 158.5t65.5 158.5t158.5 65.5t158.5 -65.5t65.5 -158.5t-65.5 -158.5t-158.5 -65.5zM328.5 328.5q-11.5 11.5 -22.5 0.5l-123 -123q-5 -6 -4 -14
q-1 -8 4 -14l123 -123q11 -11 22.5 0.5t0.5 22.5l-114 114l114 114q11 11 -0.5 22.5z" />
    <glyph glyph-name="left153" unicode="&#xe05d;" 
d="M448 448h-384q-27 0 -45.5 -18.5t-18.5 -45.5v-384q0 -27 18.5 -45.5t45.5 -18.5h384q27 0 45.5 18.5t18.5 45.5v384q0 27 -18.5 45.5t-45.5 18.5zM480 0q0 -13 -9.5 -22.5t-22.5 -9.5h-384q-13 0 -22.5 9.5t-9.5 22.5v384q0 13 9.5 22.5t22.5 9.5h384q13 0 22.5 -9.5
t9.5 -22.5v-384zM347 347q-11 11 -23 0l-143 -143q-5 -5 -5 -12q0 -8 5 -12l143 -143q12 -12 23 0q5 4 5 11t-5 11l-133 133l133 132q11 12 0 23z" />
    <glyph glyph-name="left158" unicode="&#xe05e;" horiz-adv-x="551" 
d="M20 409h512q8 0 13.5 5.5t5.5 13.5t-5.5 14t-13.5 6h-512q-8 0 -14 -6t-6 -14t6 -13.5t14 -5.5zM20 251h354q8 0 14 6t6 14t-6 13.5t-14 5.5h-354q-8 0 -14 -5.5t-6 -13.5t6 -14t14 -6zM315 -25h-295q-8 0 -14 -5.5t-6 -13.5t6 -14t14 -6h295q8 0 14 6t6 14t-6 13.5
t-14 5.5zM532 133h-512q-8 0 -14 -6t-6 -14t6 -13.5t14 -5.5h512q8 0 13.5 5.5t5.5 13.5t-5.5 14t-13.5 6z" />
    <glyph glyph-name="left159" unicode="&#xe05f;" horiz-adv-x="493" 
d="M219 320v107q1 10 -5 16q-5 5 -13 5t-13 -5l-183 -201q-5 -5 -5 -13q0 -9 5 -14l182 -199q5 -7 14 -7q7 0 13 5q6 6 5 16v107q91 0 163 -57.5t89 -143.5q22 52 22 109q0 114 -80 194.5t-194 80.5zM238 174l-56 -1v-98l-139 154l139 153v-99h56q45 -1 87.5 -26t70 -59.5
t44.5 -71t17 -62.5q-31 40 -98 75t-121 35z" />
    <glyph glyph-name="like51" unicode="&#xe060;" horiz-adv-x="544" 
d="M408 448q-65 0 -136 -68q-64 68 -136 68q-58 0 -97 -43t-39 -100q0 -45 34 -97l212 -253q18 -19 26 -19t26 19l212 253q34 44 34 97q0 57 -39 100t-97 43zM476 215l-204 -243l-204 244q-34 48 -34 89q0 45 29 78t73 33q34 0 71.5 -27t64.5 -61q27 33 64.5 60.5t71.5 27.5
q43 0 72.5 -33.5t29.5 -77.5q0 -47 -34 -90z" />
    <glyph glyph-name="link52" unicode="&#xe061;" 
d="M114 -21q-10 -10 -23.5 -10t-23.5 10l-24 24q-10 10 -10 23.5t10 23.5l159 159q-37 10 -64 -17l-118 -118q-20 -20 -20 -47.5t20 -47.5l23 -23q20 -20 47.5 -20t47.5 20l118 118q27 27 17 64zM492 405l-23 23q-20 20 -47.5 20t-47.5 -20l-118 -118q-27 -27 -17 -64
l159 159q10 10 23.5 10t23.5 -10l24 -24q10 -10 10 -23.5t-10 -23.5l-159 -159q37 -10 64 17l118 118q20 20 20 47.5t-20 47.5zM309 245q-5 5 -12 5t-11 -5l-83 -83q-5 -5 -5 -12t5 -11.5t12 -4.5t11 5l83 82q5 5 5 12t-5 12z" />
    <glyph glyph-name="list63" unicode="&#xe062;" horiz-adv-x="796" 
d="M28.5 220q-11.5 0 -20 -8t-8.5 -20t8.5 -20t20 -8t20 8t8.5 20t-8.5 20t-20 8zM28.5 -7q-11.5 0 -20 -8.5t-8.5 -20t8.5 -20t20 -8.5t20 8.5t8.5 20t-8.5 20t-20 8.5zM199 391h569q12 0 20 8.5t8 20t-8 20t-20 8.5h-569q-12 0 -20 -8.5t-8 -20t8 -20t20 -8.5zM28.5 448
q-11.5 0 -20 -8.5t-8.5 -20t8.5 -20t20 -8.5t20 8.5t8.5 20t-8.5 20t-20 8.5zM768 -7h-569q-12 0 -20 -8.5t-8 -20t8 -20t20 -8.5h569q12 0 20 8.5t8 20t-8 20t-20 8.5zM768 220h-569q-12 0 -20 -8t-8 -20t8 -20t20 -8h569q12 0 20 8t8 20t-8 20t-20 8z" />
    <glyph glyph-name="list65" unicode="&#xe063;" horiz-adv-x="717" 
d="M51 38q-21 0 -36 -15t-15 -36t15 -36t36 -15t36 15t15 36t-15 36t-36 15zM230 371h461q11 0 18.5 7.5t7.5 18t-7.5 18t-18.5 7.5h-461q-10 0 -17.5 -7.5t-7.5 -18t7.5 -18t17.5 -7.5zM51 243q-21 0 -36 -15t-15 -36t15 -36t36 -15t36 15t15 36t-15 36t-36 15zM691 218
h-461q-10 0 -17.5 -7.5t-7.5 -18.5t7.5 -18.5t17.5 -7.5h461q11 0 18.5 7.5t7.5 18.5t-7.5 18.5t-18.5 7.5zM691 13h-461q-10 0 -17.5 -7.5t-7.5 -18t7.5 -18t17.5 -7.5h461q11 0 18.5 7.5t7.5 18t-7.5 18t-18.5 7.5zM51 448q-21 0 -36 -15t-15 -36t15 -36t36 -15t36 15
t15 36t-15 36t-36 15z" />
    <glyph glyph-name="lock64" unicode="&#xe064;" horiz-adv-x="320" 
d="M160 128q-7 0 -11.5 -4.5t-4.5 -11.5v-64q0 -7 4.5 -11.5t11.5 -4.5t11.5 4.5t4.5 11.5v64q0 7 -4.5 11.5t-11.5 4.5zM288 192v128q0 53 -37.5 90.5t-90.5 37.5t-90.5 -37.5t-37.5 -90.5v-128q-32 -43 -32 -96q0 -66 47 -113t113 -47t113 47t47 113q0 53 -32 96zM64 320
q0 40 28 68t68 28t68 -28t28 -68v-96q-43 32 -96 32t-96 -32v96zM160 -32q-53 0 -90.5 37.5t-37.5 90.5t37.5 90.5t90.5 37.5q51 0 89.5 -38.5t38.5 -89.5q0 -53 -37.5 -90.5t-90.5 -37.5z" />
    <glyph glyph-name="login12" unicode="&#xe065;" horiz-adv-x="585" 
d="M317 78q-5 -6 -5 -13.5t5 -12.5t13 -5t13 5l126 126q6 6 5 14q1 8 -5 14l-126 126q-5 5 -13 5t-13 -5t-5 -12.5t5 -13.5l96 -96h-395q-7 0 -12.5 -5t-5.5 -13t5.5 -13t12.5 -5h395zM512 448h-366q-30 0 -51.5 -21.5t-21.5 -51.5v-73h37v73q0 15 10.5 25.5t25.5 10.5h366
q15 0 26 -10.5t11 -25.5v-366q0 -15 -11 -25.5t-26 -10.5h-366q-15 0 -25.5 10.5t-10.5 25.5v73h-37v-73q0 -30 21.5 -51.5t51.5 -21.5h366q30 0 51.5 21.5t21.5 51.5v366q0 30 -21.5 51.5t-51.5 21.5z" />
    <glyph glyph-name="login9" unicode="&#xe066;" horiz-adv-x="585" 
d="M475 9q0 -15 -10.5 -25.5t-25.5 -10.5h-366q-15 0 -25.5 10.5t-10.5 25.5v366q0 15 10.5 25.5t25.5 10.5h366q15 0 25.5 -10.5t10.5 -25.5v-55h37v55q0 30 -21.5 51.5t-51.5 21.5h-366q-30 0 -51.5 -21.5t-21.5 -51.5v-366q0 -30 21.5 -51.5t51.5 -21.5h366
q30 0 51.5 21.5t21.5 51.5v55h-37v-55zM567 210h-395l96 96q5 6 5 13.5t-5 12.5t-12.5 5t-13.5 -5l-126 -126q-6 -6 -5 -14q-1 -8 5 -14l126 -126q5 -5 13 -5t13 5t5 13t-5 13l-96 96h395q7 0 12.5 5t5.5 13t-5.5 13t-12.5 5z" />
    <glyph glyph-name="map87" unicode="&#xe067;" 
d="M144 288q-7 0 -11.5 -4.5t-4.5 -11.5v-160q0 -7 4.5 -11.5t11.5 -4.5t11.5 4.5t4.5 11.5v160q0 7 -4.5 11.5t-11.5 4.5zM272 240q-7 0 -11.5 -4.5t-4.5 -11.5v-96q0 -7 4.5 -11.5t11.5 -4.5t11.5 4.5t4.5 11.5v96q0 7 -4.5 11.5t-11.5 4.5zM384 176q0 -7 4.5 -11.5
t11.5 -4.5t11.5 4.5t4.5 11.5v128q0 7 -4.5 11.5t-11.5 4.5t-11.5 -4.5t-4.5 -11.5v-128zM384 448l-128 -96l-128 48l-128 -80v-384l128 80l128 -48l128 96l128 -96v384zM480 24l-96 72l-128 -96l-128 48l-96 -60v320l96 60l128 -48l128 96l96 -72v-320z" />
    <glyph glyph-name="megaphone11" unicode="&#xe068;" horiz-adv-x="546" 
d="M512 448l-154 -102h-221q-59 0 -98 -32.5t-39 -87.5q0 -47 28.5 -79t73.5 -40v-137q0 -14 10 -24t25 -10h51q14 0 24 10t10 24v137h136l154 -103q14 0 24 10t10 24v376q0 14 -10 24t-24 10zM188 -13q0 -7 -5 -12t-12 -5h-17q-7 0 -12 5t-5 12v120h51v-120zM273 141h-136
q-16 0 -31 3t-32.5 11t-28.5 26.5t-11 45t10.5 45t28 26.5t33 11t31.5 2h136v-170zM358 141h-51v170h51v-170zM512 38l-119 86v205l119 85v-376z" />
    <glyph glyph-name="men25" unicode="&#xe069;" horiz-adv-x="569" 
d="M540 -7h-512q-11 0 -19.5 -8.5t-8.5 -20t8.5 -20t19.5 -8.5h512q12 0 20.5 8.5t8.5 20t-8.5 20t-20.5 8.5zM28 391h512q12 0 20.5 8.5t8.5 20t-8.5 20t-20.5 8.5h-512q-11 0 -19.5 -8.5t-8.5 -20t8.5 -20t19.5 -8.5zM540 220h-512q-11 0 -19.5 -8t-8.5 -20t8.5 -20
t19.5 -8h512q12 0 20.5 8t8.5 20t-8.5 20t-20.5 8z" />
    <glyph glyph-name="menu40" unicode="&#xe06a;" horiz-adv-x="585" 
d="M73 302h439q30 0 51.5 21.5t21.5 51.5t-21.5 51.5t-51.5 21.5h-439q-30 0 -51.5 -21.5t-21.5 -51.5t21.5 -51.5t51.5 -21.5zM73 411h439q15 0 26 -10.5t11 -25.5t-11 -26t-26 -11h-439q-15 0 -25.5 11t-10.5 26t10.5 25.5t25.5 10.5zM512 82h-439q-30 0 -51.5 -21.5
t-21.5 -51.5t21.5 -51.5t51.5 -21.5h439q30 0 51.5 21.5t21.5 51.5t-21.5 51.5t-51.5 21.5zM512 -27h-439q-15 0 -25.5 10.5t-10.5 25.5t10.5 26t25.5 11h439q15 0 26 -11t11 -26t-11 -25.5t-26 -10.5zM512 265h-439q-30 0 -51.5 -21.5t-21.5 -51.5t21.5 -51.5t51.5 -21.5
h439q30 0 51.5 21.5t21.5 51.5t-21.5 51.5t-51.5 21.5zM512 155h-439q-15 0 -25.5 11t-10.5 26t10.5 26t25.5 11h439q15 0 26 -11t11 -26t-11 -26t-26 -11z" />
    <glyph glyph-name="menu41" unicode="&#xe06b;" 
d="M448 448h-384q-26 0 -45 -20t-19 -47v-381q0 -27 18.5 -45.5t45.5 -18.5h381q27 0 47 19t20 45v384q0 26 -19 45t-45 19zM480 0q0 -13 -11 -22.5t-24 -9.5h-381q-14 0 -23 9t-9 23v381q0 14 9.5 24.5t22.5 10.5h384q13 0 22.5 -9.5t9.5 -22.5v-384zM384 128h-256
q-7 0 -11.5 -4.5t-4.5 -11.5t4.5 -11.5t11.5 -4.5h256q7 0 11.5 4.5t4.5 11.5t-4.5 11.5t-11.5 4.5zM384 224h-256q-7 0 -11.5 -4.5t-4.5 -11.5t4.5 -11.5t11.5 -4.5h256q7 0 11.5 4.5t4.5 11.5t-4.5 11.5t-11.5 4.5zM384 320h-256q-7 0 -11.5 -4.5t-4.5 -11.5t4.5 -11.5
t11.5 -4.5h256q7 0 11.5 4.5t4.5 11.5t-4.5 11.5t-11.5 4.5z" />
    <glyph glyph-name="microphone76" unicode="&#xe06c;" horiz-adv-x="352" 
d="M352 144h-32q-11 -48 -52 -80t-92 -32t-92 32t-52 80h-32q11 -57 56 -97.5t104 -45.5v-33h-16q-7 0 -11.5 -4.5t-4.5 -11.5t4.5 -11.5t11.5 -4.5h64q7 0 11.5 4.5t4.5 11.5t-4.5 11.5t-11.5 4.5h-16v33q59 5 104 45.5t56 97.5zM176 64q46 0 79 33t33 79v160q0 46 -33 79
t-79 33t-79 -33t-33 -79v-160q0 -46 33 -79t79 -33zM96 336q0 33 23.5 56.5t56.5 23.5t56.5 -23.5t23.5 -56.5v-160q0 -33 -23.5 -56.5t-56.5 -23.5t-56.5 23.5t-23.5 56.5v160z" />
    <glyph glyph-name="microphone77" unicode="&#xe06d;" horiz-adv-x="352" 
d="M333 333q-12 50 -56 82.5t-101 32.5t-101 -32.5t-56 -82.5q-19 -8 -19 -29v-32q0 -13 9.5 -22.5t22.5 -9.5h1q17 -31 47 -51l32 -221q0 -13 9.5 -22.5t22.5 -9.5h64q13 0 22.5 9.5t9.5 22.5l32 221q30 20 47 51h1q13 0 22.5 9.5t9.5 22.5v32q0 21 -19 29zM176 416
q43 0 77 -22.5t46 -57.5h-246q12 35 46 57.5t77 22.5zM208 0q-1 -2 -1.5 -6t-1 -6t-1 -5t-1.5 -5l-2 -4t-2 -3.5t-3 -2t-4 -0.5h-32q-3 0 -5.5 1.5t-4 5t-2.5 7t-2 9t-2 9.5l-31 171q30 -11 63 -11t63 11zM176 192q-67 0 -105 48h210q-38 -48 -105 -48zM304 272h-256
q-7 0 -11.5 4.5t-4.5 11.5t4.5 11.5t11.5 4.5h256q7 0 11.5 -4.5t4.5 -11.5t-4.5 -11.5t-11.5 -4.5z" />
    <glyph glyph-name="minus79" unicode="&#xe06e;" 
d="M256 448q-106 0 -181 -75t-75 -181t75 -181t181 -75t181 75t75 181t-75 181t-181 75zM256 -32q-93 0 -158.5 65.5t-65.5 158.5t65.5 158.5t158.5 65.5t158.5 -65.5t65.5 -158.5t-65.5 -158.5t-158.5 -65.5zM352 208h-192q-7 0 -11.5 -4.5t-4.5 -11.5t4.5 -11.5t11.5 -4.5
h192q7 0 11.5 4.5t4.5 11.5t-4.5 11.5t-11.5 4.5z" />
    <glyph glyph-name="minus80" unicode="&#xe06f;" 
d="M352 208h-192q-7 0 -11.5 -4.5t-4.5 -11.5t4.5 -11.5t11.5 -4.5h192q7 0 11.5 4.5t4.5 11.5t-4.5 11.5t-11.5 4.5zM448 448h-384q-27 0 -45.5 -18.5t-18.5 -45.5v-384q0 -27 18.5 -45.5t45.5 -18.5h384q27 0 45.5 18.5t18.5 45.5v384q0 27 -18.5 45.5t-45.5 18.5zM480 0
q0 -13 -9.5 -22.5t-22.5 -9.5h-384q-13 0 -22.5 9.5t-9.5 22.5v384q0 13 9.5 22.5t22.5 9.5h384q13 0 22.5 -9.5t9.5 -22.5v-384z" />
    <glyph glyph-name="minus83" unicode="&#xe070;" 
d="M299 249h-161q-6 0 -10.5 -4.5t-4.5 -10.5t4.5 -10.5t10.5 -4.5h161q7 0 11.5 4.5t4.5 10.5t-4.5 10.5t-11.5 4.5zM507 -36l-132 130q56 61 56 142q0 88 -63 150t-152.5 62t-152.5 -62t-63 -150t63 -150t152 -62q77 0 136 47l133 -130q11 -12 23 0q5 5 5 11.5t-5 11.5z
M215.5 57q-75.5 0 -129 52.5t-53.5 126.5t53.5 126.5t129 52.5t129 -52.5t53.5 -126.5t-53.5 -126.5t-129 -52.5z" />
    <glyph glyph-name="minus86" unicode="&#xe071;" horiz-adv-x="396" 
d="M346 241h-297q-20 0 -34.5 -14.5t-14.5 -34.5t14.5 -34.5t34.5 -14.5h297q21 0 35.5 14.5t14.5 34.5t-14.5 34.5t-35.5 14.5zM346 167h-297q-10 0 -17 7.5t-7 17.5t7 17.5t17 7.5h297q10 0 17.5 -7.5t7.5 -17.5t-7.5 -17.5t-17.5 -7.5z" />
    <glyph glyph-name="monitor74" unicode="&#xe072;" horiz-adv-x="496" 
d="M432 448h-368q-27 0 -45.5 -18.5t-18.5 -45.5v-288q0 -27 18.5 -45.5t45.5 -18.5h128v-64h-32q-7 0 -11.5 -4.5t-4.5 -11.5t4.5 -11.5t11.5 -4.5h192q7 0 11.5 4.5t4.5 11.5t-4.5 11.5t-11.5 4.5h-32v64h112q27 0 45.5 18.5t18.5 45.5v288q0 27 -18.5 45.5t-45.5 18.5z
M288 -32h-64v64h64v-64zM464 96q0 -13 -9.5 -22.5t-22.5 -9.5h-368q-13 0 -22.5 9.5t-9.5 22.5v32h432v-32zM464 160h-432v224q0 13 9.5 22.5t22.5 9.5h368q13 0 22.5 -9.5t9.5 -22.5v-224z" />
    <glyph glyph-name="music218" unicode="&#xe073;" 
d="M464 -32h-416q-7 0 -11.5 -4.5t-4.5 -11.5t4.5 -11.5t11.5 -4.5h416q7 0 11.5 4.5t4.5 11.5t-4.5 11.5t-11.5 4.5zM432 384l-208 -32q-7 0 -11.5 -4.5t-4.5 -11.5v-135q-42 19 -91 -8q-34 -18 -47 -47.5t1.5 -53t51 -27t69.5 14.5q25 14 37.5 36t10.5 44v162l176 28v-117
q-42 19 -91 -8q-34 -18 -47 -47.5t1.5 -53t51 -27t69.5 14.5q25 14 37.5 36t10.5 44v176q0 7 -4.5 11.5t-11.5 4.5zM178 105q-21 -11 -43.5 -10t-32.5 13.5t-2 29t29 27.5q44 23 70 2q14 -12 6 -31.5t-27 -30.5zM386 137q-21 -11 -43.5 -10t-32.5 13.5t-2 29t29 27.5
q42 22 70 3q15 -13 7 -32t-28 -31zM448 448h-384q-27 0 -45.5 -18.5t-18.5 -45.5v-320q0 -27 18.5 -45.5t45.5 -18.5h384q27 0 45.5 18.5t18.5 45.5v320q0 27 -18.5 45.5t-45.5 18.5zM480 64q0 -13 -9.5 -22.5t-22.5 -9.5h-384q-13 0 -22.5 9.5t-9.5 22.5v320q0 13 9.5 22.5
t22.5 9.5h384q13 0 22.5 -9.5t9.5 -22.5v-320z" />
    <glyph glyph-name="music219" unicode="&#xe074;" horiz-adv-x="546" 
d="M549 448q-3 0 -7 -2l-283 -66q-7 0 -12 -5t-5 -12v-239q-26 17 -66.5 16.5t-78.5 -20.5q-48 -26 -68 -68t1.5 -76t70.5 -39.5t98 20.5q30 16 51 44t26 54v295l256 60v-218q-26 18 -66.5 17t-78.5 -21q-48 -26 -67.5 -68t1.5 -76t71.5 -40.5t99.5 19.5q67 35 74 101v307
q0 7 -5 12t-12 5zM191 -13q-37 -20 -74.5 -20t-55.5 22t-4 52t51 50q74 40 122 4q23 -19 8.5 -54.5t-47.5 -53.5zM484 52q-37 -20 -76 -18t-57 24q-17 23 -3.5 52.5t51 49t69.5 20t52 -17.5q21 -20 8 -56t-44 -54z" />
    <glyph glyph-name="music221" unicode="&#xe075;" horiz-adv-x="444" 
d="M427 448q-7 0 -12 -5t-5 -12v-280q-28 22 -71.5 21.5t-84.5 -24.5q-51 -29 -71.5 -77.5t0.5 -87.5q22 -40 75 -46t104 24q39 23 61 57.5t21 69.5v1v342q0 7 -5 12t-12 5zM350 -11q-37 -23 -78.5 -21.5t-58.5 28.5q-18 27 -2.5 64.5t53.5 60.5q38 24 80 22t60 -29
t1.5 -64.5t-55.5 -60.5zM17 397h307q7 0 12 5t5 12t-5 12t-12 5h-307q-7 0 -12 -5t-5 -12t5 -12t12 -5zM17 294h307q7 0 12 5t5 12t-5 12t-12 5h-307q-7 0 -12 -5t-5 -12t5 -12t12 -5zM120 124h-103q-7 0 -12 -5t-5 -12.5t5 -12.5t12 -5h103q7 0 12 5t5 12.5t-5 12.5t-12 5z
M17 192h188q7 0 12 5t5 12t-5 12t-12 5h-188q-7 0 -12 -5t-5 -12t5 -12t12 -5z" />
    <glyph glyph-name="musical100" unicode="&#xe076;" horiz-adv-x="366" 
d="M381 335l-108 108q-11 11 -23 0q-4 -3 -4 -21v0v-281q-26 20 -67.5 19.5t-80.5 -23.5q-49 -28 -69 -74t1.5 -83t71.5 -43t99 22q37 22 58.5 55.5t19.5 66.5v309l79 -78q11 -11 22.5 0.5t0.5 22.5zM191 -14q-36 -22 -74.5 -20.5t-55.5 26.5q-18 26 -4 61.5t49.5 58t75 20
t56.5 -28.5t3 -60t-50 -57z" />
    <glyph glyph-name="musical98" unicode="&#xe077;" horiz-adv-x="273" 
d="M276 448q-8 0 -12 -4.5t-5 -8.5l-1 -4v-279q-28 21 -71.5 20.5t-84.5 -24.5q-52 -30 -72.5 -78.5t0.5 -87.5q22 -39 75 -45t105 24q40 22 61.5 57t21.5 72v341q0 7 -5 12t-12 5zM200 -11q-38 -23 -79 -21.5t-59 28.5t-3.5 64t52.5 60.5t79 21.5t60 -30q16 -30 0.5 -65.5
t-50.5 -57.5z" />
    <glyph glyph-name="mute34" unicode="&#xe078;" horiz-adv-x="400" 
d="M65 142l-0.5 1l-0.5 1h-32q3 -14 8 -28zM128 336q0 33 23.5 56.5t56.5 23.5q26 0 46.5 -15t28.5 -38l24 24q-14 28 -40.5 44.5t-58.5 16.5q-46 0 -79 -33t-33 -79v-160l8 7t16 15l8 8v130zM377 400l-377 -362l23 -22l377 361zM208 32q-45 0 -84 27l-23 -23q42 -31 91 -35
v-33h-16q-6 0 -11 -4.5t-5 -11.5t5 -11.5t11 -4.5h64q7 0 11.5 4.5t4.5 11.5t-4.5 11.5t-11.5 4.5h-16v33q60 5 105 45.5t55 97.5h-32q-11 -48 -52 -80t-92 -32zM208 96q-19 0 -38 10l-23 -24q28 -18 61 -18q47 0 79.5 33t32.5 79v82l-32 -33v-49q0 -33 -23.5 -56.5
t-56.5 -23.5z" />
    <glyph glyph-name="new83" unicode="&#xe079;" horiz-adv-x="683" 
d="M363 149h-256q-9 0 -15.5 -6t-6.5 -15t6.5 -15t15.5 -6h256q8 0 14.5 6t6.5 15t-6.5 15t-14.5 6zM363 64h-256q-9 0 -15.5 -6.5t-6.5 -15t6.5 -15t15.5 -6.5h256q8 0 14.5 6.5t6.5 15t-6.5 15t-14.5 6.5zM597 448h-512q-35 0 -60 -25t-25 -60v-342q0 -35 25 -60t60 -25
h512q36 0 61 25t25 60v342q0 35 -25 60t-61 25zM640 21q0 -17 -12.5 -29.5t-30.5 -12.5h-512q-17 0 -29.5 12.5t-12.5 29.5v342q0 17 12.5 29.5t29.5 12.5h512q18 0 30.5 -12.5t12.5 -29.5v-342zM555 363h-86q-17 0 -29.5 -12.5t-12.5 -30.5v-85q0 -18 12.5 -30.5
t29.5 -12.5h86q17 0 29.5 12.5t12.5 30.5v85q0 18 -12.5 30.5t-29.5 12.5zM555 256q0 -9 -6.5 -15t-15.5 -6h-42q-9 0 -15.5 6t-6.5 15v43q0 8 6.5 14.5t15.5 6.5h42q9 0 15.5 -6.5t6.5 -14.5v-43z" />
    <glyph glyph-name="nine16" unicode="&#xe07a;" 
d="M240 0h32v32h-32v-32zM256 384q-7 0 -11.5 -4.5t-4.5 -11.5v-160h-128q-7 0 -11.5 -5t-4.5 -11.5t4.5 -11t11.5 -4.5h144q7 0 11.5 4.5t4.5 11.5v176q0 7 -4.5 11.5t-11.5 4.5zM108 83l22 -23l22 23l-22 22zM155 315l-23 22l-22 -22l22 -23zM353 316l22 -23l23 23l-23 22
zM349 84l22 -23l23 23l-23 22zM416 208v-32h32v32h-32zM256 448q-106 0 -181 -75t-75 -181t75 -181t181 -75t181 75t75 181t-75 181t-181 75zM256 -32q-93 0 -158.5 65.5t-65.5 158.5t65.5 158.5t158.5 65.5t158.5 -65.5t65.5 -158.5t-65.5 -158.5t-158.5 -65.5z" />
    <glyph glyph-name="note35" unicode="&#xe07b;" 
d="M130 159l-69 -139q-4 -12 3.5 -20t18.5 -3l140 69q10 2 16 8l247 248q10 9 10 22t-10 23l-56 56q-9 9 -22.5 9t-22.5 -9l-247 -248q-6 -6 -8 -16zM396 389q12 11 23 0l34 -34q11 -11 0 -22l-34 -34l-55 57zM340 332l56 -55l-179 -180q-54 53 -57 56zM189 80l-86 -52
q-6 -3 -10 1t-2 10l52 86zM480 256v-256q0 -13 -11 -22.5t-24 -9.5h-381q-14 0 -23 9t-9 23v381q0 14 9.5 24.5t22.5 10.5h256v32h-256q-26 0 -45 -20t-19 -47v-381q0 -27 18.5 -45.5t45.5 -18.5h381q27 0 47 19t20 45v256h-32z" />
    <glyph glyph-name="notebook41" unicode="&#xe07c;" horiz-adv-x="352" 
d="M272 96h-192q-7 0 -11.5 -4.5t-4.5 -11.5t4.5 -11.5t11.5 -4.5h192q7 0 11.5 4.5t4.5 11.5t-4.5 11.5t-11.5 4.5zM272 192h-192q-7 0 -11.5 -4.5t-4.5 -11.5t4.5 -11.5t11.5 -4.5h192q7 0 11.5 4.5t4.5 11.5t-4.5 11.5t-11.5 4.5zM272 288h-192q-7 0 -11.5 -4.5
t-4.5 -11.5t4.5 -11.5t11.5 -4.5h192q7 0 11.5 4.5t4.5 11.5t-4.5 11.5t-11.5 4.5zM288 416v32h-32v-32h-64v32h-32v-32h-64v32h-32v-32q-27 0 -45.5 -18.5t-18.5 -45.5v-352q0 -27 18.5 -45.5t45.5 -18.5h224q27 0 45.5 18.5t18.5 45.5v352q0 27 -18.5 45.5t-45.5 18.5z
M320 0q0 -13 -9.5 -22.5t-22.5 -9.5h-224q-13 0 -22.5 9.5t-9.5 22.5v352q0 13 9.5 22.5t22.5 9.5h224q13 0 22.5 -9.5t9.5 -22.5v-352z" />
    <glyph glyph-name="notification4" unicode="&#xe07d;" 
d="M427 425.5q-61 34.5 -129 17t-103 -77.5l-68 -115l-127 -82l132 -74q-17 -30 -8 -63.5t39.5 -50.5t64.5 -8t52 39l132 -75l9 148l68 115q35 60 17 126t-79 100.5zM180.5 9q-18.5 10 -24 30t5.5 38l88 -50q-10 -18 -30.5 -23t-39 5zM460 216l-68 -115l-7 -111l-324 182
l95 61l68 115q28 48 82.5 62t103.5 -13t63.5 -80.5t-13.5 -100.5z" />
    <glyph glyph-name="notification5" unicode="&#xe07e;" horiz-adv-x="478" 
d="M410 141v136q0 71 -50 121t-121 50t-121 -50t-50 -121v-136l-68 -137h155q6 -29 29.5 -48.5t54.5 -19.5t54.5 19.5t29.5 48.5h155zM238.5 -30q-16.5 0 -29.5 9.5t-18 24.5h96q-5 -15 -18.5 -24.5t-30 -9.5zM51 38l51 103v136q0 57 40 97t96.5 40t96.5 -40t40 -97v-136
l52 -103h-376z" />
    <glyph glyph-name="opened25" unicode="&#xe07f;" 
d="M256 448l-256 -144v-304q0 -27 18.5 -45.5t45.5 -18.5h384q27 0 45.5 18.5t18.5 45.5v304zM32 0v250l145 -116l-143 -143q-2 5 -2 9zM57 -31l147 147l52 -36l52 36l147 -147q-2 -1 -199 -1t-199 1zM480 0q0 -4 -2 -9l-143 143l145 116v-250zM256 118l-224 170l224 123
l224 -123z" />
    <glyph glyph-name="oval34" unicode="&#xe080;" 
d="M256 448q-106 0 -181 -65.5t-75 -158.5q0 -52 25.5 -97.5t70.5 -77.5v-113l112 68q25 -4 48 -4q106 0 181 65.5t75 158.5t-75 158.5t-181 65.5zM256 32q-27 0 -54 6l-75 -45l1 74q-45 26 -70.5 67.5t-25.5 89.5q0 80 65.5 136t158.5 56t158.5 -56t65.5 -136t-65.5 -136
t-158.5 -56z" />
    <glyph glyph-name="paintbrush9" unicode="&#xe081;" horiz-adv-x="585" 
d="M569 432.5q-16 15.5 -38.5 15.5t-38.5 -16l-314 -309q-87 1 -114 -88q-17 -38 -64 -38q33 -37 72.5 -51.5t72 -8.5t55.5 17t35 23q28 29 23 73l311 307q16 15 16 37.5t-16 38zM209 2q-11 -10 -35 -20t-55.5 -13t-54.5 15q16 13 29 39q8 22 22 37t27.5 21t26 8t20.5 2
t8 -1l25 -25q2 -2 4.5 -10t0 -24t-17.5 -29zM248 90l-26 25l38 38l26 -25zM543 382l-232 -229l-25 25l232 229q5 5 12.5 5t12.5 -5t5 -12.5t-5 -12.5z" />
    <glyph glyph-name="paper122" unicode="&#xe082;" 
d="M495 447q-494 -240 -495 -240q10 -6 26.5 -16t52 -31t58.5 -35t22.5 -13.5t23.5 -43.5l48 -88l24 -44q252 487 256 495q3 8 -2.5 13.5t-13.5 2.5zM64 207l367 176l-255 -240q0 1 -28 16.5t-56 31.5zM255 0q-50 96 -63 128l256 242z" />
    <glyph glyph-name="pause37" unicode="&#xe083;" horiz-adv-x="366" 
d="M110 448h-73q-16 0 -26.5 -10.5t-10.5 -26.5v-438q0 -16 10.5 -26.5t26.5 -10.5h73q15 0 25.5 10.5t10.5 26.5v438q0 16 -10.5 26.5t-25.5 10.5zM110 -9q0 -8 -5.5 -13t-13.5 -5h-36q-8 0 -13 5t-5 13v402q0 8 5 13t13 5h36q8 0 13.5 -5t5.5 -13v-402zM329 448h-73
q-15 0 -26 -10.5t-11 -26.5v-438q0 -16 11 -26.5t26 -10.5h73q15 0 26 10.5t11 26.5v438q0 16 -11 26.5t-26 10.5zM329 -9q0 -8 -5.5 -13t-12.5 -5h-37q-7 0 -12.5 5t-5.5 13v402q0 8 5.5 13t12.5 5h37q7 0 12.5 -5t5.5 -13v-402z" />
    <glyph glyph-name="pencil85" unicode="&#xe084;" horiz-adv-x="160" 
d="M160 416q0 15 -8.5 23.5t-23.5 8.5h-96q-15 0 -23.5 -8.5t-8.5 -23.5v-356l64 -113q7 -11 16 -11t16 11l64 113v356zM80 -21l-48 85h96zM128 96h-96v208h96v-208zM128 336h-96v64q0 12 2 14t14 2h64q12 0 14 -2t2 -14v-64z" />
    <glyph glyph-name="phone351" unicode="&#xe085;" horiz-adv-x="513" 
d="M499 391l-48 47q-10 10 -23.5 10t-23.5 -10l-71 -95q-20 -28 0 -47l29 -29q-39 -51 -77 -89q-43 -43 -102 -88l-29 28q-19 20 -47 0l-95 -71q-12 -8 -11 -22.5t11 -24.5l47 -47q33 -33 95 0q12 6 32 18.5t71.5 51t91.5 78.5q38 37 75 86t56 79l19 30q9 26 12.5 37
t1.5 28.5t-14 29.5zM475 320q-21 -40 -62 -94.5t-80 -95.5q-27 -29 -77.5 -67.5t-87.5 -62.5l-37 -24q-8 -4 -26 -4t-24 6l-30 31q-12 20 0 30l60 45q18 12 30 0l38 -37q156 109 226 224l-38 38q-12 12 0 30l45 60q7 8 15.5 7.5t15.5 -7.5l30 -30q8 -10 8 -24t-6 -25z" />
    <glyph glyph-name="photo181" unicode="&#xe086;" horiz-adv-x="585" 
d="M512 375h-55l-18 36l-3.5 7t-3.5 6.5t-3 5.5t-3 5.5t-3.5 4t-4.5 3.5t-4.5 2.5t-5 2t-6.5 0.5h-219q-3 0 -6 -0.5t-5.5 -2t-4.5 -2.5t-4.5 -4t-3.5 -4.5t-3.5 -5.5t-3 -5.5t-3 -6t-3.5 -6.5l-18 -36h-55q-30 0 -51.5 -21.5t-21.5 -51.5v-293q0 -30 21.5 -51.5t51.5 -21.5
h439q30 0 51.5 21.5t21.5 51.5v293q0 30 -21.5 51.5t-51.5 21.5zM549 9q0 -15 -11 -25.5t-26 -10.5h-439q-15 0 -25.5 10.5t-10.5 25.5v293q0 15 10.5 25.5t25.5 10.5h73l19 37q2 4 6 11.5t6 10.5t6 7t8 5.5t10 1.5h183q7 0 12.5 -3.5t8 -6t8.5 -13t8 -13.5l18 -37h73
q15 0 26 -10.5t11 -25.5v-293zM292.5 302q-60.5 0 -103.5 -43t-43 -103.5t43 -103.5t103.5 -43t103.5 43t43 103.5t-43 103.5t-103.5 43zM292.5 46q-45.5 0 -77.5 32t-32 77.5t32 77.5t77.5 32t77.5 -32t32 -77.5t-32 -77.5t-77.5 -32z" />
    <glyph glyph-name="pin42" unicode="&#xe087;" 
d="M391 88l87 87h-51l-188 188l-5 85l-234 -234l85 -5l188 -188v-51l87 87l138 -121l14 14zM298 46l-188 188l104 104l188 -188z" />
    <glyph glyph-name="planetary2" unicode="&#xe088;" 
d="M256 448q-106 0 -181 -75t-75 -181t75 -181t181 -75t181 75t75 181t-75 181t-181 75zM442 317q33 -49 37 -109h-128q-1 47 -8 87q52 7 99 22zM420 345q-40 -13 -83 -19q-10 45 -26 83q63 -16 109 -64zM193 208q1 44 8 83q29 -3 55 -3t55 3q7 -39 8 -83h-126zM319 176
q-1 -44 -8 -83q-29 3 -55 3t-55 -3q-7 39 -8 83h126zM240 415q12 1 16 1t16 -1q20 -42 32 -93q-25 -2 -48 -2t-48 2q12 51 32 93zM201 409q-16 -39 -26 -83q-43 6 -83 19q46 48 109 64zM70 317q47 -15 99 -22q-7 -40 -8 -87h-128q4 60 37 109zM70 67q-33 49 -37 109h128
q1 -47 8 -87q-52 -7 -99 -22zM92 39q40 13 83 19q10 -45 26 -83q-63 16 -109 64zM272 -31q-12 -1 -16 -1t-16 1q-20 42 -32 93q25 2 48 2t48 -2q-12 -51 -32 -93zM311 -25q16 39 26 83q43 -6 82 -19q-45 -48 -108 -64zM442 67q-47 15 -99 22q7 40 8 87h128q-4 -60 -37 -109z
" />
    <glyph glyph-name="play83" unicode="&#xe089;" horiz-adv-x="402" 
d="M388 219l-344 224q-16 10 -30 2.5t-14 -32.5v-441q0 -26 15 -33.5t29 3.5l344 224q14 10 14 26.5t-14 26.5zM36 -14v412l326 -206z" />
    <glyph glyph-name="portfolio23" unicode="&#xe08a;" horiz-adv-x="546" 
d="M478 380h-103v34q0 14 -10 24t-24 10h-136q-14 0 -24 -10t-10 -24v-34h-103q-28 0 -48 -20t-20 -49v-307q0 -28 20 -48t48 -20h410q28 0 48 20t20 48v307q0 29 -20 49t-48 20zM205 397q0 7 5 12t12 5h102q7 0 12 -5t5 -12v-17h-136v17zM512 4q0 -14 -10 -24t-24 -10h-410
q-14 0 -24 10t-10 24v188h173q-2 -9 -2 -17q0 -28 20 -48t48 -20t48 20t20 48q0 8 -2 17h173v-188zM239 175q0 9 5 17h58q5 -8 5 -17q0 -14 -10 -24t-24 -10t-24 10t-10 24zM512 226h-478v85q0 15 10 25t24 10h410q14 0 24 -10t10 -25v-85z" />
    <glyph glyph-name="print34" unicode="&#xe08b;" horiz-adv-x="585" 
d="M512 174h-37v201q0 30 -21 51.5t-52 21.5h-219q-30 0 -51.5 -21.5t-21.5 -51.5v-201h-37q-30 0 -51.5 -21.5t-21.5 -51.5v-37q0 -30 21.5 -51.5t51.5 -21.5h39q6 -24 26 -39.5t45 -15.5h219q26 0 45.5 15.5t25.5 39.5h39q30 0 51.5 21.5t21.5 51.5v37q0 30 -21.5 51.5
t-51.5 21.5zM146 375q0 15 11 25.5t26 10.5h219q15 0 26 -10.5t11 -25.5v-201h-293v201zM402 -27h-219q-15 0 -26 10.5t-11 25.5t11 26t26 11h219q15 0 26 -11t11 -26t-11 -25.5t-26 -10.5zM549 64q0 -15 -11 -26t-26 -11h-39q-6 24 -25.5 39.5t-45.5 15.5h-219
q-25 0 -44.5 -15.5t-26.5 -39.5h-39q-15 0 -25.5 11t-10.5 26v37q0 15 10.5 25.5t25.5 10.5h439q15 0 26 -10.5t11 -25.5v-37z" />
    <glyph glyph-name="radio46" unicode="&#xe08c;" horiz-adv-x="585" 
d="M201 82h-110q-7 0 -12.5 -5t-5.5 -13t5.5 -13t12.5 -5h110q8 0 13 5t5 13t-5 13t-13 5zM201 155h-110q-7 0 -12.5 -5t-5.5 -12.5t5.5 -13t12.5 -5.5h110q8 0 13 5.5t5 13t-5 12.5t-13 5zM512 338h-39l-192 108q-7 3 -14 1.5t-11 -8t-2 -13.5t9 -11l139 -77h-329
q-30 0 -51.5 -21.5t-21.5 -51.5v-256q0 -30 21.5 -51.5t51.5 -21.5h439q30 0 51.5 21.5t21.5 51.5v256q0 30 -21.5 51.5t-51.5 21.5zM548 9q0 -15 -10.5 -25.5t-25.5 -10.5h-439q-15 0 -25.5 10.5t-10.5 25.5v256q0 15 10.5 26t25.5 11h439q15 0 25.5 -11t10.5 -26v-256z
M383.5 247q-45.5 0 -77.5 -32t-32 -77.5t32 -78t77.5 -32.5t78 32.5t32.5 78t-32.5 77.5t-78 32zM384 64q-30 0 -51.5 21.5t-21.5 51.5t21.5 51.5t51.5 21.5t51.5 -21.5t21.5 -51.5t-21.5 -51.5t-51.5 -21.5zM201 228h-110q-7 0 -12.5 -5t-5.5 -12.5t5.5 -13t12.5 -5.5h110
q8 0 13 5.5t5 13t-5 12.5t-13 5z" />
    <glyph glyph-name="rain30" unicode="&#xe08d;" 
d="M304 16q-7 0 -11.5 -4.5t-4.5 -11.5v-48q0 -7 4.5 -11.5t11.5 -4.5t11.5 4.5t4.5 11.5v48q0 7 -4.5 11.5t-11.5 4.5zM112 16q-7 0 -11.5 -4.5t-4.5 -11.5v-48q0 -7 4.5 -11.5t11.5 -4.5t11.5 4.5t4.5 11.5v48q0 7 -4.5 11.5t-11.5 4.5zM208 16q-7 0 -11.5 -4.5
t-4.5 -11.5v-48q0 -7 4.5 -11.5t11.5 -4.5t11.5 4.5t4.5 11.5v48q0 7 -4.5 11.5t-11.5 4.5zM400 16q-7 0 -11.5 -4.5t-4.5 -11.5v-48q0 -7 4.5 -11.5t11.5 -4.5t11.5 4.5t4.5 11.5v48q0 7 -4.5 11.5t-11.5 4.5zM369 368q-18 36 -52.5 58t-76.5 22q-57 0 -98 -38.5t-45 -95.5
q-43 -12 -70 -45.5t-27 -76.5q0 -51 37 -88t91 -40h224q64 0 112 45t48 107q0 60 -41.5 104t-101.5 48zM352 96h-224q-4 0 -10.5 1.5t-23 7.5t-29.5 15.5t-23 28.5t-10 43q0 36 29 64.5t67 31.5q0 52 31 90t81 38q40 0 67 -22t38 -58q56 2 94.5 -33.5t40.5 -78.5
q2 -50 -40 -89t-88 -39z" />
    <glyph glyph-name="rectangular78" unicode="&#xe08e;" 
d="M427 448h-342q-35 0 -60 -25t-25 -60v-270q0 -35 22 -56t58 -21h106l70 -80l70 80h106q36 0 58 21t22 56v270q0 35 -25 60t-60 25zM480 96q0 -18 -15 -33t-33 -15h-128l-48 -64l-48 64h-128q-18 0 -33 15t-15 33v272q0 18 15 33t33 15h352q18 0 33 -15t15 -33v-272z" />
    <glyph glyph-name="recycling10" unicode="&#xe08f;" horiz-adv-x="416" 
d="M288 0q7 0 11.5 4.5t4.5 11.5v192q0 7 -4.5 11.5t-11.5 4.5t-11.5 -4.5t-4.5 -11.5v-192q0 -7 4.5 -11.5t11.5 -4.5zM384 384h-96v32q0 13 -9.5 22.5t-22.5 9.5h-96q-13 0 -22.5 -9.5t-9.5 -22.5v-32h-96q-13 0 -22.5 -9.5t-9.5 -22.5v-32q0 -13 9.5 -22.5t22.5 -9.5
v-288q0 -27 18.5 -45.5t45.5 -18.5h224q27 0 45.5 18.5t18.5 45.5v288q13 0 22.5 9.5t9.5 22.5v32q0 13 -9.5 22.5t-22.5 9.5zM160 400q0 7 4.5 11.5t11.5 4.5h64q7 0 11.5 -4.5t4.5 -11.5v-16h-96v16zM352 0q0 -13 -9.5 -22.5t-22.5 -9.5h-224q-13 0 -22.5 9.5t-9.5 22.5
v288h288v-288zM368 320h-320q-7 0 -11.5 4.5t-4.5 11.5t4.5 11.5t11.5 4.5h320q7 0 11.5 -4.5t4.5 -11.5t-4.5 -11.5t-11.5 -4.5zM128 0q7 0 11.5 4.5t4.5 11.5v192q0 7 -4.5 11.5t-11.5 4.5t-11.5 -4.5t-4.5 -11.5v-192q0 -7 4.5 -11.5t11.5 -4.5zM208 0q7 0 11.5 4.5
t4.5 11.5v192q0 7 -4.5 11.5t-11.5 4.5t-11.5 -4.5t-4.5 -11.5v-192q0 -7 4.5 -11.5t11.5 -4.5z" />
    <glyph glyph-name="rewind37" unicode="&#xe090;" horiz-adv-x="586" 
d="M542 441l-176 -126v97q0 53 -44 29l-311 -223q-11 -11 -11 -26.5t11 -26.5l311 -223q14 -11 29 -3.5t15 33.5v96l176 -126q14 -11 29 -3.5t15 34.5v438q0 19 -7 28t-16.5 8.5t-20.5 -6.5zM549 -14l-220 154v-154l-293 205l293 206v-154l220 154v-411z" />
    <glyph glyph-name="right139" unicode="&#xe091;" 
d="M361 206l-91 91q-11 11 -22.5 -0.5t-0.5 -22.5l66 -66h-169q-7 0 -11.5 -4.5t-4.5 -11.5t4.5 -11.5t11.5 -4.5h169l-66 -66q-11 -11 0.5 -22.5t22.5 -0.5l91 91q5 6 4 14q1 8 -4 14zM256 448q-106 0 -181 -75t-75 -181t75 -181t181 -75t181 75t75 181t-75 181t-181 75z
M256 -32q-93 0 -158.5 65.5t-65.5 158.5t65.5 158.5t158.5 65.5t158.5 -65.5t65.5 -158.5t-65.5 -158.5t-158.5 -65.5z" />
    <glyph glyph-name="right141" unicode="&#xe092;" horiz-adv-x="416" 
d="M411 252l-47 95q-5 5 -13 5h-95v32q0 27 -18.5 45.5t-45.5 18.5h-32q-27 0 -45.5 -18.5t-18.5 -45.5v-32h-64q-13 0 -22.5 -9.5t-9.5 -22.5v-160q0 -13 9.5 -22.5t22.5 -9.5h64v-128q0 -27 18.5 -45.5t45.5 -18.5h32q27 0 45.5 18.5t18.5 45.5v128h96q7 0 12 5l47 95
q4 7 5 12q0 4 -5 12zM128 384q0 13 9.5 22.5t22.5 9.5h32q13 0 22.5 -9.5t9.5 -22.5v-32h-96v32zM224 0q0 -13 -9.5 -22.5t-22.5 -9.5h-32q-13 0 -22.5 9.5t-9.5 22.5v128h96v-128zM345 163q-5 -3 -9 -3h-288q-7 0 -11.5 4.5t-4.5 11.5v128q0 7 4.5 11.5t11.5 4.5h288
q5 0 9 -3l38 -77z" />
    <glyph glyph-name="right142" unicode="&#xe093;" 
d="M448 448h-384q-27 0 -45.5 -18.5t-18.5 -45.5v-384q0 -27 18.5 -45.5t45.5 -18.5h384q27 0 45.5 18.5t18.5 45.5v384q0 27 -18.5 45.5t-45.5 18.5zM480 0q0 -13 -9.5 -22.5t-22.5 -9.5h-384q-13 0 -22.5 9.5t-9.5 22.5v384q0 13 9.5 22.5t22.5 9.5h384q13 0 22.5 -9.5
t9.5 -22.5v-384zM377 206l-91 91q-11 11 -22.5 -0.5t-0.5 -22.5l66 -66h-169q-7 0 -11.5 -4.5t-4.5 -11.5t4.5 -11.5t11.5 -4.5h169l-66 -66q-11 -11 0.5 -22.5t22.5 -0.5l91 91q5 6 4 14q1 8 -4 14z" />
    <glyph glyph-name="right144" unicode="&#xe094;" horiz-adv-x="546" 
d="M85 175h210l-68 -56q-5 -5 -5 -12.5t5 -12.5t12 -5t12 5l102 85q5 5 5 13q0 7 -5 13l-102 84q-5 5 -12 5t-12 -5t-5 -12t5 -12l67 -56h-209q-7 0 -12 -5t-5 -12t5 -12t12 -5zM478 448h-410q-28 0 -48 -20t-20 -48v-376q0 -28 20 -48t48 -20h410q28 0 48 20t20 48v376
q0 28 -20 48t-48 20zM410 -30h-342q-14 0 -24 10t-10 24v376q0 14 10 24t24 10h342v-444zM512 4q0 -14 -10 -24t-24 -10h-34v444h34q14 0 24 -10t10 -24v-376z" />
    <glyph glyph-name="right148" unicode="&#xe095;" 
d="M329 206l-123 123q-11 11 -22.5 -0.5t-0.5 -22.5l114 -114l-114 -114q-11 -11 0.5 -22.5t22.5 -0.5l123 123q5 6 4 14q1 8 -4 14zM256 448q-106 0 -181 -75t-75 -181t75 -181t181 -75t181 75t75 181t-75 181t-181 75zM256 -32q-93 0 -158.5 65.5t-65.5 158.5t65.5 158.5
t158.5 65.5t158.5 -65.5t65.5 -158.5t-65.5 -158.5t-158.5 -65.5z" />
    <glyph glyph-name="right153" unicode="&#xe096;" horiz-adv-x="493" 
d="M488 242l-182 201q-6 5 -13.5 5t-13.5 -5q-6 -6 -5 -16v-107q-113 0 -193.5 -80.5t-80.5 -194.5q0 -57 23 -109q16 86 88.5 143.5t162.5 57.5v-107q-1 -9 5 -16h1q5 -5 13 -5t14 7l181 199q6 5 5 14q1 8 -5 13zM311 75v98q-43 1 -55 1q-55 0 -121.5 -35t-97.5 -75
q0 26 16.5 62.5t44 71t70 59.5t88.5 26h55v99l140 -153z" />
    <glyph glyph-name="right154" unicode="&#xe097;" horiz-adv-x="299" 
d="M293 208l-256 234q-7 6 -15.5 6t-15 -6.5t-6.5 -15t6 -15.5l241 -219l-241 -219q-6 -7 -6 -15.5t6.5 -15t15 -6.5t15.5 6l256 234q7 6 6 16q1 10 -6 16z" />
    <glyph glyph-name="right156" unicode="&#xe098;" 
d="M188 347q-12 11 -23 0t0 -23l133 -132l-133 -133q-5 -4 -5 -11t5 -11q11 -12 23 0l143 143q5 4 5 12q0 7 -5 12zM448 448h-384q-27 0 -45.5 -18.5t-18.5 -45.5v-384q0 -27 18.5 -45.5t45.5 -18.5h384q27 0 45.5 18.5t18.5 45.5v384q0 27 -18.5 45.5t-45.5 18.5zM480 0
q0 -13 -9.5 -22.5t-22.5 -9.5h-384q-13 0 -22.5 9.5t-9.5 22.5v384q0 13 9.5 22.5t22.5 9.5h384q13 0 22.5 -9.5t9.5 -22.5v-384z" />
    <glyph glyph-name="rounded51" unicode="&#xe099;" horiz-adv-x="320" 
d="M256 384h-80v64h-64q-7 0 -11.5 -4.5t-4.5 -11.5t4.5 -11.5t11.5 -4.5h32v-32h-80q-27 0 -45.5 -18.5t-18.5 -45.5v-320q0 -27 18.5 -45.5t45.5 -18.5h192q27 0 45.5 18.5t18.5 45.5v320q0 27 -18.5 45.5t-45.5 18.5zM288 0q0 -13 -9.5 -22.5t-22.5 -9.5h-192
q-13 0 -22.5 9.5t-9.5 22.5v320q0 13 9.5 22.5t22.5 9.5h192q13 0 22.5 -9.5t9.5 -22.5v-320zM160 320q-7 0 -11.5 -4.5t-4.5 -11.5v-64q0 -7 4.5 -11.5t11.5 -4.5t11.5 4.5t4.5 11.5v64q0 7 -4.5 11.5t-11.5 4.5z" />
    <glyph glyph-name="sand14" unicode="&#xe09a;" horiz-adv-x="352" 
d="M336 -32h-32v112q0 46 -33 79t-79 33q46 0 79 33t33 79v112h32q7 0 11.5 4.5t4.5 11.5t-4.5 11.5t-11.5 4.5h-320q-7 0 -11.5 -4.5t-4.5 -11.5t4.5 -11.5t11.5 -4.5h32v-112q0 -46 33 -79t79 -33q-46 0 -79 -33t-33 -79v-112h-32q-7 0 -11.5 -4.5t-4.5 -11.5t4.5 -11.5
t11.5 -4.5h320q7 0 11.5 4.5t4.5 11.5t-4.5 11.5t-11.5 4.5zM80 304v112h192v-112q0 -33 -24.5 -56.5t-59.5 -23.5h-24q-35 0 -59.5 23.5t-24.5 56.5zM272 -32h-192v112q0 33 24.5 56.5t59.5 23.5h24q35 0 59.5 -23.5t24.5 -56.5v-112z" />
    <glyph glyph-name="save15" unicode="&#xe09b;" 
d="M304 288q7 0 11.5 4.5t4.5 11.5v64q0 7 -4.5 11.5t-11.5 4.5t-11.5 -4.5t-4.5 -11.5v-64q0 -7 4.5 -11.5t11.5 -4.5zM448 448h-384q-27 0 -45.5 -18.5t-18.5 -45.5v-384q0 -27 18.5 -45.5t45.5 -18.5h384q27 0 45.5 18.5t18.5 45.5v384q0 27 -18.5 45.5t-45.5 18.5z
M128 416h256v-144q0 -7 -4.5 -11.5t-11.5 -4.5h-224q-7 0 -11.5 4.5t-4.5 11.5v144zM480 0q0 -13 -9.5 -22.5t-22.5 -9.5h-384q-13 0 -22.5 9.5t-9.5 22.5v384q0 13 9.5 22.5t22.5 9.5h32v-160q0 -13 9.5 -22.5t22.5 -9.5h256q13 0 22.5 9.5t9.5 22.5v160h32q13 0 22.5 -9.5
t9.5 -22.5v-384z" />
    <glyph glyph-name="search74" unicode="&#xe09c;" 
d="M507 -36l-132 130q56 61 56 142q0 88 -63 150t-152.5 62t-152.5 -62t-63 -150t63 -150t152 -62q77 0 136 47l133 -130q11 -12 23 0q5 5 5 11.5t-5 11.5zM215.5 57q-75.5 0 -129 52.5t-53.5 126.5t53.5 126.5t129 52.5t129 -52.5t53.5 -126.5t-53.5 -126.5t-129 -52.5z
" />
    <glyph glyph-name="search78" unicode="&#xe09d;" horiz-adv-x="224" 
d="M224 320q0 53 -33 90.5t-79 37.5t-79 -37.5t-33 -90.5q0 -48 27.5 -84t68.5 -43v-1v-240q0 -7 4.5 -11.5t11.5 -4.5t11.5 4.5t4.5 11.5v240v1q41 7 68.5 43t27.5 84zM112 224q-33 0 -56.5 28t-23.5 68t23.5 68t56.5 28t56.5 -28t23.5 -68t-23.5 -68t-56.5 -28z" />
    <glyph glyph-name="share27" unicode="&#xe09e;" horiz-adv-x="473" 
d="M374 133q-53 0 -83 -46l-105 61q11 21 11 44q0 13 -5 28l110 63q29 -32 72 -32q41 0 70 29t29 69.5t-29 69.5t-70 29t-69.5 -29t-28.5 -69q0 -13 4 -29l-109 -62q-30 31 -73 31q-40 0 -69 -28.5t-29 -69.5t29 -69.5t69 -28.5q33 0 60 20v-1l119 -68q-1 -10 -1 -11
q0 -40 28.5 -69t69.5 -29t70 29t29 69.5t-29 69.5t-70 29zM374.5 409q24.5 0 41.5 -17.5t17 -42t-17 -42t-41.5 -17.5t-42 17.5t-17.5 42t17.5 42t42 17.5zM98.5 133q-24.5 0 -42 17.5t-17.5 41.5t17.5 41.5t42 17.5t42 -17.5t17.5 -41.5t-17.5 -41.5t-42 -17.5zM374.5 -25
q-24.5 0 -42 17.5t-17.5 42t17.5 42t42 17.5t41.5 -17.5t17 -42t-17 -42t-41.5 -17.5z" />
    <glyph glyph-name="shopping198" unicode="&#xe09f;" horiz-adv-x="384" 
d="M320 384h-32q0 27 -28 45.5t-68 18.5t-68 -18.5t-28 -45.5h-32q-27 0 -45.5 -18.5t-18.5 -45.5v-320q0 -27 18.5 -45.5t45.5 -18.5h256q27 0 45.5 18.5t18.5 45.5v320q0 27 -18.5 45.5t-45.5 18.5zM192 416q64 0 64 -32h-128q0 32 64 32zM352 0q0 -13 -9.5 -22.5
t-22.5 -9.5h-256q-13 0 -22.5 9.5t-9.5 22.5v32h320v-32zM352 64h-320v256q0 13 9.5 22.5t22.5 9.5h32v-96h32v96h128v-96h32v96h32q13 0 22.5 -9.5t9.5 -22.5v-256z" />
    <glyph glyph-name="shopping199" unicode="&#xe0a0;" horiz-adv-x="630" 
d="M610 330h-128l40 79h49q8 0 14 5.5t6 13.5t-6 14t-14 6h-79l-60 -118h-232l-62 118h-79q-8 0 -14 -6t-6 -14t6 -13.5t14 -5.5h49l43 -79h-131q-8 0 -14 -6t-6 -14t6 -14t14 -6h19l20 -275q0 -33 23 -56t56 -23h335q32 0 55 23t23 56l40 275h19q9 0 14.5 6t5.5 14t-5.5 14
t-14.5 6zM197 -25h-59q-16 0 -28 11.5t-12 28.5l-2 39h101v-79zM197 94h-104l-6 78h110v-78zM197 212h-113l-5 78h118v-78zM394 -25h-158v79h158v-79zM394 94h-158v78h158v-78zM394 212h-158v78h158v-78zM512 15q0 -17 -11.5 -28.5t-27.5 -11.5h-40v79h85zM523 94h-90v78
h102zM540 212h-107v78h118z" />
    <glyph glyph-name="shopping202" unicode="&#xe0a1;" 
d="M96 0q0 -27 18.5 -45.5t45.5 -18.5t45.5 18.5t18.5 45.5t-18.5 45.5t-45.5 18.5t-45.5 -18.5t-18.5 -45.5zM160 32q13 0 22.5 -9.5t9.5 -22.5t-9.5 -22.5t-22.5 -9.5t-22.5 9.5t-9.5 22.5t9.5 22.5t22.5 9.5zM288 0q0 -27 18.5 -45.5t45.5 -18.5t45.5 18.5t18.5 45.5
t-18.5 45.5t-45.5 18.5t-45.5 -18.5t-18.5 -45.5zM352 32q13 0 22.5 -9.5t9.5 -22.5t-9.5 -22.5t-22.5 -9.5t-22.5 9.5t-9.5 22.5t9.5 22.5t22.5 9.5zM128 96q-13 0 -22.5 9.5t-9.5 22.5l368 32q48 194 48 208q0 7 -4.5 11.5t-11.5 4.5h-400v32h16q7 0 11.5 4.5t4.5 11.5
t-4.5 11.5t-11.5 4.5h-96q-7 0 -11.5 -4.5t-4.5 -11.5t4.5 -11.5t11.5 -4.5h48v-288q0 -27 18.5 -45.5t45.5 -18.5h32h192h144v32h-368zM96 352h384l-41 -164l-343 -28v192z" />
    <glyph glyph-name="shopping204" unicode="&#xe0a2;" horiz-adv-x="546" 
d="M170 311l-42 137h-111q-7 0 -12 -5t-5 -12t5 -12t12 -5h85l35 -103l34 -204q0 -29 20 -49t48 -20h188q28 0 48 20t20 49l51 204h-376zM461 107q0 -14 -10 -24t-24 -10h-188q-14 0 -24 10t-10 24l-29 170h327zM239 4q-14 0 -24 -10t-10 -24t10 -24t24 -10t24 10t10 24
t-10 24t-24 10zM409.5 4q-14.5 0 -24.5 -10t-10 -24t10 -24t24.5 -10t24.5 10t10 24t-10 24t-24.5 10z" />
    <glyph glyph-name="shuffle17" unicode="&#xe0a3;" horiz-adv-x="602" 
d="M22 336h90l78 -107l28 37q-78 108 -84 115h-112q-9 0 -15.5 -7.5t-6.5 -16.5t6.5 -15t15.5 -6zM503 110q-5 4 -17 3.5t-17 -5.5v-62h-90l-79 108l-28 -36l85 -114h112v-64q5 -5 17 -3.5t17 6.5l94 71q5 5 5 12t-5 12zM469 336v-59q5 -6 17 -7t17 4l94 71q5 5 5 12t-5 12
l-94 72q-6 5 -17.5 6.5t-16.5 -2.5v-64h-112l-245 -335h-90q-9 0 -15.5 -5.5t-6.5 -14.5t6.5 -16.5t15.5 -7.5h112l245 334h90z" />
    <glyph glyph-name="sort47" unicode="&#xe0a4;" horiz-adv-x="530" 
d="M512 -27h-256q-7 0 -12.5 -5.5t-5.5 -13t5.5 -13t12.5 -5.5h256q8 0 13 5.5t5 13t-5 13t-13 5.5zM287 270.5q5 5.5 5 13t-5 13.5l-127 146q-6 5 -14 5t-14 -5l-127 -146q-5 -6 -5 -13.5t5.5 -13t13 -5.5t12.5 6l97 111v-446h37v445l96 -110q5 -6 13 -6t13 5.5zM293 375
h219q8 0 13 5.5t5 13t-5 13t-13 5.5h-219q-8 0 -13.5 -5.5t-5.5 -13t5.5 -13t13.5 -5.5zM512 82h-256q-7 0 -12.5 -5t-5.5 -12.5t5.5 -13t12.5 -5.5h256q8 0 13 5.5t5 13t-5 12.5t-13 5zM512 192h-256q-7 0 -12.5 -5t-5.5 -13t5.5 -13t12.5 -5h256q8 0 13 5t5 13t-5 13
t-13 5zM512 302h-146q-8 0 -13 -5.5t-5 -13t5 -13t13 -5.5h146q8 0 13 5.5t5 13t-5 13t-13 5.5z" />
    <glyph glyph-name="sort48" unicode="&#xe0a5;" horiz-adv-x="530" 
d="M512 9h-219q-8 0 -13.5 -5.5t-5.5 -13t5.5 -13t13.5 -5.5l219 1q8 0 13 5t5 12.5t-5 13t-13 5.5zM256 411h256q8 0 13 5.5t5 13t-5 13t-13 5.5h-256q-7 0 -12.5 -5.5t-5.5 -13t5.5 -13t12.5 -5.5zM287 113.5q-5 5.5 -13 5.5t-13 -6l-96 -110v445h-37v-446l-97 111
q-5 6 -12.5 6t-13 -5.5t-5.5 -13t5 -13.5l127 -146q6 -5 14 -5t14 5l127 146q5 6 5 13.5t-5 13zM512 338h-256q-7 0 -12.5 -5.5t-5.5 -13t5.5 -12.5t12.5 -5h256q8 0 13 5t5 12.5t-5 13t-13 5.5zM512 228h-256q-7 0 -12.5 -5t-5.5 -12.5t5.5 -13t12.5 -5.5h256q8 0 13 5
t5 13t-5 13t-13 5zM512 119h-146q-8 0 -13 -5.5t-5 -13t5 -13t13 -5.5h146q8 0 13 5.5t5 13t-5 13t-13 5.5z" />
    <glyph glyph-name="speaker75" unicode="&#xe0a6;" 
d="M80 352q7 0 11.5 4.5t4.5 11.5t-4.5 11.5t-11.5 4.5t-11.5 -4.5t-4.5 -11.5t4.5 -11.5t11.5 -4.5zM432 32q-7 0 -11.5 -4.5t-4.5 -11.5t4.5 -11.5t11.5 -4.5t11.5 4.5t4.5 11.5t-4.5 11.5t-11.5 4.5zM80 32q-7 0 -11.5 -4.5t-4.5 -11.5t4.5 -11.5t11.5 -4.5t11.5 4.5
t4.5 11.5t-4.5 11.5t-11.5 4.5zM432 384q-7 0 -11.5 -4.5t-4.5 -11.5t4.5 -11.5t11.5 -4.5t11.5 4.5t4.5 11.5t-4.5 11.5t-11.5 4.5zM448 448h-384q-27 0 -45.5 -18.5t-18.5 -45.5v-384q0 -27 18.5 -45.5t45.5 -18.5h384q27 0 45.5 18.5t18.5 45.5v384q0 27 -18.5 45.5
t-45.5 18.5zM480 0q0 -13 -9.5 -22.5t-22.5 -9.5h-384q-13 0 -22.5 9.5t-9.5 22.5v384q0 13 9.5 22.5t22.5 9.5h384q13 0 22.5 -9.5t9.5 -22.5v-384zM256 384q-80 0 -136 -56t-56 -136t56 -136t136 -56t136 56t56 136t-56 136t-136 56zM256 32q-66 0 -113 47t-47 113t47 113
t113 47t113 -47t47 -113t-47 -113t-113 -47zM256 288q-40 0 -68 -28t-28 -68t28 -68t68 -28t68 28t28 68t-28 68t-68 28zM256 128q-27 0 -45.5 18.5t-18.5 45.5t18.5 45.5t45.5 18.5t45.5 -18.5t18.5 -45.5t-18.5 -45.5t-45.5 -18.5z" />
    <glyph glyph-name="speaker80" unicode="&#xe0a7;" horiz-adv-x="341" 
d="M299 448l-192 -128h-64q-18 0 -30.5 -12.5t-12.5 -30.5v-170q0 -18 12.5 -30.5t30.5 -12.5h64l192 -128q17 0 29.5 12.5t12.5 30.5v426q0 18 -12.5 30.5t-29.5 12.5zM107 128q0 -9 -6.5 -15t-15.5 -6h-21q-9 0 -15 6t-6 15v128q0 9 6 15t15 6h21q9 0 15.5 -6t6.5 -15
v-128zM299 -21l-150 93v240l150 93v-426z" />
    <glyph glyph-name="speaker81" unicode="&#xe0a8;" horiz-adv-x="384" 
d="M320 448h-256q-27 0 -45.5 -18.5t-18.5 -45.5v-384q0 -27 18.5 -45.5t45.5 -18.5h256q27 0 45.5 18.5t18.5 45.5v384q0 27 -18.5 45.5t-45.5 18.5zM352 0q0 -13 -9.5 -22.5t-22.5 -9.5h-128h-128q-13 0 -22.5 9.5t-9.5 22.5v384q0 13 9.5 22.5t22.5 9.5h256
q13 0 22.5 -9.5t9.5 -22.5v-384zM192 384q-33 0 -56.5 -23.5t-23.5 -56.5t23.5 -56.5t56.5 -23.5t56.5 23.5t23.5 56.5t-23.5 56.5t-56.5 23.5zM192 256q-20 0 -34 14t-14 34t14 34t34 14t34 -14t14 -34t-14 -34t-34 -14zM304 80q0 46 -33 79t-79 33t-79 -33t-33 -79t33 -79
t79 -33t79 33t33 79zM192 0q-33 0 -56.5 23.5t-23.5 56.5t23.5 56.5t56.5 23.5t56.5 -23.5t23.5 -56.5t-23.5 -56.5t-56.5 -23.5z" />
    <glyph glyph-name="speaker86" unicode="&#xe0a9;" horiz-adv-x="567" 
d="M458 192q0 48 -31.5 84t-78.5 42v-36q31 -7 52 -32t21 -58t-21 -58t-52 -32v-36q47 6 78.5 42t31.5 84zM256 412l-164 -110h-55q-16 0 -26.5 -11t-10.5 -26v-146q0 -15 10.5 -26t26.5 -11h55l164 -110q15 0 26 11t11 26v366q0 15 -11 26t-26 11zM92 137q0 -7 -5.5 -12.5
t-13.5 -5.5h-18q-8 0 -13 5.5t-5 12.5v110q0 7 5 12.5t13 5.5h18q8 0 13.5 -5.5t5.5 -12.5v-110zM256 9l-128 80v206l128 80v-366zM348 448v-38q81 -15 132 -75.5t51 -142.5t-50 -141t-133 -77v-38q94 14 156.5 86.5t62.5 169.5t-62.5 169.5t-156.5 86.5z" />
    <glyph glyph-name="speaker87" unicode="&#xe0aa;" horiz-adv-x="533" 
d="M299 448l-192 -128h-64q-18 0 -30.5 -12.5t-12.5 -30.5v-170q0 -18 12.5 -30.5t30.5 -12.5h64l192 -128q17 0 29.5 12.5t12.5 30.5v426q0 18 -12.5 30.5t-29.5 12.5zM107 128q0 -9 -6.5 -15t-15.5 -6h-21q-9 0 -15 6t-6 15v128q0 9 6 15t15 6h21q9 0 15.5 -6t6.5 -15
v-128zM299 -21l-150 93v240l150 93v-426zM405 339v-42q37 -8 61.5 -37.5t24.5 -67.5t-24.5 -67.5t-61.5 -37.5v-42q55 8 91.5 49.5t36.5 97.5t-36.5 97.5t-91.5 49.5z" />
    <glyph glyph-name="speech96" unicode="&#xe0ab;" 
d="M128 256q-13 0 -22.5 -9.5t-9.5 -22.5t9.5 -22.5t22.5 -9.5t22.5 9.5t9.5 22.5t-9.5 22.5t-22.5 9.5zM256 256q-13 0 -22.5 -9.5t-9.5 -22.5t9.5 -22.5t22.5 -9.5t22.5 9.5t9.5 22.5t-9.5 22.5t-22.5 9.5zM384 256q-13 0 -22.5 -9.5t-9.5 -22.5t9.5 -22.5t22.5 -9.5
t22.5 9.5t9.5 22.5t-9.5 22.5t-22.5 9.5zM256 448q-106 0 -181 -65.5t-75 -158.5q0 -52 25.5 -97.5t70.5 -77.5v-113l112 68q25 -4 48 -4q106 0 181 65.5t75 158.5t-75 158.5t-181 65.5zM256 32q-27 0 -54 6l-75 -45l1 74q-45 26 -70.5 67.5t-25.5 89.5q0 80 65.5 136
t158.5 56t158.5 -56t65.5 -136t-65.5 -136t-158.5 -56z" />
    <glyph glyph-name="square152" unicode="&#xe0ac;" 
d="M32 0v128h-32v-128q0 -27 18.5 -45.5t45.5 -18.5h128v32h-128q-13 0 -22.5 9.5t-9.5 22.5zM0 384v-128h32v128q0 13 9.5 22.5t22.5 9.5h128v32h-128q-27 0 -45.5 -18.5t-18.5 -45.5zM480 0q0 -13 -9.5 -22.5t-22.5 -9.5h-128v-32h128q27 0 45.5 18.5t18.5 45.5v128h-32
v-128zM448 448h-128v-32h128q13 0 22.5 -9.5t9.5 -22.5v-128h32v128q0 27 -18.5 45.5t-45.5 18.5z" />
    <glyph glyph-name="square156" unicode="&#xe0ad;" 
d="M475 448h-438q-16 0 -26.5 -10.5t-10.5 -26.5v-438q0 -16 10.5 -26.5t26.5 -10.5h438q16 0 26.5 10.5t10.5 26.5v438q0 16 -10.5 26.5t-26.5 10.5zM475 -9q0 -8 -5 -13t-13 -5h-402q-8 0 -13 5t-5 13v402q0 8 5 13t13 5h402q8 0 13 -5t5 -13v-402z" />
    <glyph glyph-name="square160" unicode="&#xe0ae;" 
d="M464 62v260q21 6 34.5 23t13.5 39q0 27 -18.5 45.5t-45.5 18.5q-22 0 -39 -13.5t-23 -34.5h-260q-6 21 -23 34.5t-39 13.5q-27 0 -45.5 -18.5t-18.5 -45.5q0 -22 13.5 -39t34.5 -23v-260q-21 -6 -34.5 -23t-13.5 -39q0 -27 18.5 -45.5t45.5 -18.5q22 0 39 13.5t23 34.5
h260q6 -21 23 -34.5t39 -13.5q27 0 45.5 18.5t18.5 45.5q0 22 -13.5 39t-34.5 23zM448 416q13 0 22.5 -9.5t9.5 -22.5t-9.5 -22.5t-22.5 -9.5t-22.5 9.5t-9.5 22.5t9.5 22.5t22.5 9.5zM32 384q0 13 9.5 22.5t22.5 9.5t22.5 -9.5t9.5 -22.5t-9.5 -22.5t-22.5 -9.5t-22.5 9.5
t-9.5 22.5zM64 -32q-13 0 -22.5 9.5t-9.5 22.5t9.5 22.5t22.5 9.5t22.5 -9.5t9.5 -22.5t-9.5 -22.5t-22.5 -9.5zM386 16h-260q-5 17 -17 29t-29 17v260q17 5 29 17t17 29h260q5 -17 17 -29t29 -17v-260q-17 -5 -29 -17t-17 -29zM448 -32q-13 0 -22.5 9.5t-9.5 22.5t9.5 22.5
t22.5 9.5t22.5 -9.5t9.5 -22.5t-9.5 -22.5t-22.5 -9.5z" />
    <glyph glyph-name="store10" unicode="&#xe0af;" 
d="M418 448h-325l-93 -160v-64q0 -28 16 -48v-176q0 -27 19.5 -45.5t46.5 -18.5h347q27 0 47 19t20 45v176q16 19 16 48v64zM464 0q0 -13 -10.5 -22.5t-24.5 -9.5h-347q-13 0 -23.5 9.5t-10.5 22.5v32h416v-32zM464 64h-416v96h31q14 0 31 11t25 28q10 -17 26.5 -28
t34.5 -11t35.5 10t24.5 25q6 -15 23.5 -25t35.5 -10q17 0 34 11.5t26 29.5q14 -22 25 -31.5t32 -9.5h32v-96zM480 224q0 -15 -14.5 -23.5t-33.5 -8.5t-34 10t-15 22h-15q0 -12 -17 -22t-36 -10q-18 0 -35 10t-17 22h-15q0 -12 -17 -22t-35 -10q-20 0 -36.5 8.5t-16.5 23.5
h-15q0 -12 -15 -22t-33 -10q-20 0 -34 8t-14 24v32h448v-32zM481 288h-448l74 128h297l76 -128h1z" />
    <glyph glyph-name="sun81" unicode="&#xe0b0;" 
d="M64 208h-48q-7 0 -11.5 -4.5t-4.5 -11.5t4.5 -11.5t11.5 -4.5h48q7 0 11.5 4.5t4.5 11.5t-4.5 11.5t-11.5 4.5zM256 368q7 0 11.5 4.5t4.5 11.5v48q0 7 -4.5 11.5t-11.5 4.5t-11.5 -4.5t-4.5 -11.5v-48q0 -7 4.5 -11.5t11.5 -4.5zM410 324l34 33q11 11 -0.5 22.5
t-22.5 0.5l-33 -34q-12 -11 -0.5 -22.5t22.5 0.5zM119 77l-34 -34q-5 -4 -5 -10.5t5 -11.5q11 -11 22 0l34 34q11 11 0 22t-22 0zM109 316q11 -11 22.5 0.5t0.5 22.5l-34 34q-12 11 -23 0t0 -23zM256 16q-7 0 -11.5 -4.5t-4.5 -11.5v-48q0 -7 4.5 -11.5t11.5 -4.5t11.5 4.5
t4.5 11.5v48q0 7 -4.5 11.5t-11.5 4.5zM403 68q-11 11 -22.5 -0.5t-0.5 -22.5l34 -34q12 -11 23 0t0 23zM496 208h-48q-7 0 -11.5 -4.5t-4.5 -11.5t4.5 -11.5t11.5 -4.5h48q7 0 11.5 4.5t4.5 11.5t-4.5 11.5t-11.5 4.5zM256 336q-60 0 -102 -42t-42 -102t42 -102t102 -42
t102 42t42 102t-42 102t-102 42zM256 80q-46 0 -79 33t-33 79t33 79t79 33t79 -33t33 -79t-33 -79t-79 -33z" />
    <glyph glyph-name="sunrise3" unicode="&#xe0b1;" horiz-adv-x="768" 
d="M384 346q11 0 18.5 7.5t7.5 17.5v51q0 11 -7.5 18.5t-18.5 7.5t-18.5 -7.5t-7.5 -18.5v-51q0 -10 7.5 -17.5t18.5 -7.5zM742 -13h-716q-11 0 -18.5 -7.5t-7.5 -18t7.5 -18t18.5 -7.5h716q11 0 18.5 7.5t7.5 18t-7.5 18t-18.5 7.5zM691 233l36 36q8 7 8 18t-7.5 18.5
t-18 7.5t-18.5 -8l-36 -36q-8 -8 -8 -18.5t8 -18t18.5 -7.5t17.5 8zM77 233q7 -8 18 -8t18 7.5t7.5 18t-7.5 18.5l-36 36q-8 8 -18.5 8t-18 -7.5t-7.5 -18.5t8 -18zM134 38q18 89 88 147t162 58t162 -58t88 -147h54q-15 109 -101.5 182.5t-202.5 73.5t-202.5 -73.5
t-101.5 -182.5h54z" />
    <glyph glyph-name="switch23" unicode="&#xe0b2;" horiz-adv-x="819" 
d="M563 448h-307q-106 0 -181 -75t-75 -181t75 -181t181 -75h307q106 0 181 75t75 181t-75 181t-181 75zM563 -13h-307q-85 0 -145 60t-60 145t60 145t145 60h307q85 0 145 -60t60 -145t-60 -145t-145 -60zM256 346q-64 0 -109 -45t-45 -109t45 -109t109 -45t109 45t45 109
t-45 109t-109 45zM256 90q-42 0 -72 30t-30 72t30 72t72 30t72 -30t30 -72t-30 -72t-72 -30z" />
    <glyph glyph-name="switch24" unicode="&#xe0b3;" horiz-adv-x="819" 
d="M563 448h-307q-106 0 -181 -75t-75 -181t75 -181t181 -75h307q106 0 181 75t75 181t-75 181t-181 75zM563 -13h-307q-85 0 -145 60t-60 145t60 145t145 60h307q85 0 145 -60t60 -145t-60 -145t-145 -60zM563.5 346q-63.5 0 -108.5 -45t-45 -109t45 -109t108.5 -45
t108.5 45t45 109t-45 109t-108.5 45zM563.5 90q-42.5 0 -72.5 30t-30 72t30 72t72.5 30t72.5 -30t30 -72t-30 -72t-72.5 -30z" />
    <glyph glyph-name="tag47" unicode="&#xe0b4;" horiz-adv-x="350" 
d="M340 289l-145 150q-9 9 -21 9t-21 -9l-145 -150q-8 -8 -8 -25v-262q0 -28 18.5 -47t45.5 -19h222q27 0 45.5 19t18.5 47v245v8.5v8.5t-0.5 6.5t-1.5 7t-3 6t-5 5.5zM320 0q0 -13 -9.5 -22.5t-22.5 -9.5h-224q-13 0 -22.5 10t-9.5 24v254q0 15 7 23l125 128q10 11 21 0
l124 -128q11 -11 11 -23v-256zM175 313q-26 0 -45 -19.5t-19 -46.5t19 -46t45 -19t45 19t19 46t-19 46.5t-45 19.5zM175 214q-13 0 -22.5 10t-9.5 23.5t9.5 23t22.5 9.5t22.5 -9.5t9.5 -23t-9.5 -23.5t-22.5 -10z" />
    <glyph glyph-name="television20" unicode="&#xe0b5;" 
d="M432 32h-64q-6 0 -11 -4.5t-5 -11.5t5 -11.5t11 -4.5h64q7 0 11.5 4.5t4.5 11.5t-4.5 11.5t-11.5 4.5zM288 256h-192q-13 0 -22.5 -9.5t-9.5 -22.5v-192q0 -13 9.5 -22.5t22.5 -9.5h192q13 0 22.5 9.5t9.5 22.5v192q0 13 -9.5 22.5t-22.5 9.5zM288 48q0 -7 -4.5 -11.5
t-11.5 -4.5h-160q-7 0 -11.5 4.5t-4.5 11.5v160q0 7 4.5 11.5t11.5 4.5h160q7 0 11.5 -4.5t4.5 -11.5v-160zM432 80h-64q-6 0 -11 -4.5t-5 -11.5t5 -11.5t11 -4.5h64q7 0 11.5 4.5t4.5 11.5t-4.5 11.5t-11.5 4.5zM448 320h-148l140 97q14 9 5 23q-3 6 -9.5 7.5t-12.5 -2.5
q-154 -106 -167 -114l-167 114q-5 4 -11.5 2.5t-10.5 -7.5q-9 -14 5 -23l140 -97h-148q-26 0 -45 -18.5t-19 -45.5v-256q0 -26 19 -45t45 -19h384q27 0 45.5 19t18.5 45v256q0 27 -18.5 45.5t-45.5 18.5zM480 0q0 -13 -9.5 -22.5t-22.5 -9.5h-384q-13 0 -22.5 9.5t-9.5 22.5
v256q0 13 9.5 22.5t22.5 9.5h384q13 0 22.5 -9.5t9.5 -22.5v-256zM400 256q-20 0 -34 -14t-14 -34t14 -34t34 -14t34 14t14 34t-14 34t-34 14zM416 192h-32v32h32v-32z" />
    <glyph glyph-name="text108" unicode="&#xe0b6;" horiz-adv-x="551" 
d="M315 -25h-295q-8 0 -14 -5.5t-6 -13.5t6 -14t14 -6h295q8 0 14 6t6 14t-6 13.5t-14 5.5zM20 409h512q8 0 13.5 5.5t5.5 13.5t-5.5 14t-13.5 6h-512q-8 0 -14 -6t-6 -14t6 -13.5t14 -5.5zM532 290h-512q-8 0 -14 -5.5t-6 -13.5t6 -14t14 -6h512q8 0 13.5 6t5.5 14
t-5.5 13.5t-13.5 5.5zM532 133h-512q-8 0 -14 -6t-6 -14t6 -13.5t14 -5.5h512q8 0 13.5 5.5t5.5 13.5t-5.5 14t-13.5 6z" />
    <glyph glyph-name="text109" unicode="&#xe0b7;" horiz-adv-x="448" 
d="M336 160h-224q-7 0 -11.5 -4.5t-4.5 -11.5t4.5 -11.5t11.5 -4.5h224q7 0 11.5 4.5t4.5 11.5t-4.5 11.5t-11.5 4.5zM336 256h-224q-7 0 -11.5 -4.5t-4.5 -11t4.5 -11.5t11.5 -5h224q7 0 11.5 5t4.5 11.5t-4.5 11t-11.5 4.5zM336 352h-224q-7 0 -11.5 -4.5t-4.5 -11.5
t4.5 -11.5t11.5 -4.5h224q7 0 11.5 4.5t4.5 11.5t-4.5 11.5t-11.5 4.5zM384 448h-320q-27 0 -45.5 -18.5t-18.5 -45.5v-448h30l66 48l64 -48l64 48l64 -48l64 48l66 -48h30v448q0 27 -18.5 45.5t-45.5 18.5zM416 -32l-64 48l-64 -51l-64 51l-64 -51l-64 51l-64 -49v417
q0 13 9.5 22.5t22.5 9.5h320q13 0 22.5 -9.5t9.5 -22.5v-416z" />
    <glyph glyph-name="three142" unicode="&#xe0b8;" horiz-adv-x="416" 
d="M384 192h-32q-13 0 -22.5 -9.5t-9.5 -22.5v-192q0 -13 9.5 -22.5t22.5 -9.5h32q13 0 22.5 9.5t9.5 22.5v192q0 13 -9.5 22.5t-22.5 9.5zM384 -16q0 -7 -4.5 -11.5t-11.5 -4.5t-11.5 4.5t-4.5 11.5v160q0 7 4.5 11.5t11.5 4.5t11.5 -4.5t4.5 -11.5v-160zM224 448h-32
q-13 0 -22.5 -9.5t-9.5 -22.5v-448q0 -13 9.5 -22.5t22.5 -9.5h32q13 0 22.5 9.5t9.5 22.5v448q0 13 -9.5 22.5t-22.5 9.5zM224 -16q0 -7 -4.5 -11.5t-11.5 -4.5t-11.5 4.5t-4.5 11.5v416q0 7 4.5 11.5t11.5 4.5t11.5 -4.5t4.5 -11.5v-416zM64 304h-32q-13 0 -22.5 -9.5
t-9.5 -22.5v-304q0 -13 9.5 -22.5t22.5 -9.5h32q13 0 22.5 9.5t9.5 22.5v304q0 13 -9.5 22.5t-22.5 9.5zM64 -16q0 -7 -4.5 -11.5t-11.5 -4.5t-11.5 4.5t-4.5 11.5v272q0 7 4.5 11.5t11.5 4.5t11.5 -4.5t4.5 -11.5v-272z" />
    </font>
</defs>
</svg>
